{"glyphs":{"0":{"ha":1179,"x_min":0,"x_max":0,"o":"m 592 -18 b 56 517 294 -18 56 222 b 590 1053 56 814 294 1053 b 1124 517 886 1053 1124 814 b 592 -18 1124 222 886 -18 m 590 860 b 263 517 408 860 263 708 b 592 181 263 328 408 181 b 917 517 774 181 917 328 b 590 860 917 708 772 860 "},"1":{"ha":426,"x_min":0,"x_max":0,"o":"m 363 0 l 161 0 l 161 853 l 31 853 l 31 1035 l 363 1035 "},"2":{"ha":722,"x_min":0,"x_max":0,"o":"m 36 0 l 319 463 b 61 756 175 481 61 606 b 356 1053 61 910 190 1053 b 651 756 518 1053 651 918 b 603 592 651 696 632 640 l 353 182 l 692 182 l 692 0 m 247 753 b 354 646 247 694 296 646 b 461 753 413 646 461 694 b 354 860 461 811 413 860 b 247 753 296 860 247 811 "},"3":{"ha":721,"x_min":0,"x_max":0,"o":"m 651 1036 l 460 669 b 676 353 593 619 676 496 b 318 -17 676 142 518 -17 b 31 135 200 -17 96 44 l 196 256 b 318 183 222 213 267 183 b 467 336 403 183 467 254 b 318 493 467 429 401 493 l 161 493 l 347 854 l 93 854 l 93 1036 "},"4":{"ha":796,"x_min":0,"x_max":0,"o":"m 636 431 l 775 431 l 775 249 l 636 249 l 636 0 l 442 0 l 442 249 l 11 249 l 408 1035 l 613 1035 l 311 431 l 442 431 l 442 532 l 636 532 "},"5":{"ha":740,"x_min":0,"x_max":0,"o":"m 574 1035 l 574 853 l 297 853 l 297 692 l 333 692 b 690 351 549 692 690 556 b 317 -18 690 140 526 -18 b 31 131 208 -18 97 38 l 196 251 b 317 182 222 211 268 182 b 485 335 411 182 485 236 b 333 490 485 443 421 490 l 113 490 l 113 1035 "},"6":{"ha":821,"x_min":0,"x_max":0,"o":"m 611 1035 l 418 692 b 760 335 610 685 760 528 b 403 -18 760 142 603 -18 b 50 335 210 -18 50 142 b 106 526 50 401 72 468 l 396 1035 m 403 490 b 258 335 324 490 258 428 b 403 182 258 251 324 182 b 550 335 488 182 550 251 b 403 490 550 428 486 490 "},"7":{"ha":725,"x_min":0,"x_max":0,"o":"m 743 1035 l 215 0 l 1 0 l 433 853 l 38 853 l 38 1035 "},"8":{"ha":811,"x_min":0,"x_max":0,"o":"m 403 -18 b 50 335 210 -18 50 142 b 160 592 50 436 93 526 b 108 756 126 639 108 696 b 403 1053 108 918 242 1053 b 700 756 568 1053 700 918 b 650 593 700 696 682 640 b 760 335 718 528 760 438 b 403 -18 760 142 603 -18 m 403 490 b 258 335 324 490 258 426 b 403 182 258 251 324 182 b 550 335 488 182 550 251 b 403 490 550 426 486 490 m 403 858 b 307 756 349 858 307 814 b 403 653 307 699 349 653 b 501 756 461 653 501 699 b 403 858 501 814 458 858 "},"9":{"ha":821,"x_min":0,"x_max":0,"o":"m 203 0 l 396 343 b 50 700 201 347 50 506 b 408 1053 50 893 208 1053 b 760 700 601 1053 760 893 b 722 543 760 643 749 589 l 414 0 m 408 544 b 553 700 488 544 553 608 b 408 853 553 783 488 853 b 260 700 324 853 260 783 b 408 544 260 608 325 544 "}," ":{"ha":585,"x_min":0,"x_max":0,"o":""},"%":{"ha":1246,"x_min":0,"x_max":0,"o":"m 299 0 l 764 1035 l 929 1035 l 472 0 m 968 49 b 738 279 843 49 738 154 b 968 517 738 411 843 517 b 1206 279 1101 517 1206 411 b 968 49 1206 154 1101 49 m 968 368 b 889 279 925 368 889 332 b 968 197 889 235 925 197 b 1051 279 1018 197 1051 235 b 968 368 1051 332 1017 368 m 271 517 b 40 747 146 517 40 622 b 271 985 40 879 146 985 b 508 747 404 985 508 879 b 271 517 508 622 404 517 m 271 836 b 192 747 228 836 192 800 b 271 665 192 703 228 665 b 354 747 322 665 354 703 b 271 836 354 800 319 836 "},"&":{"ha":918,"x_min":0,"x_max":0,"o":"m 901 290 l 794 290 b 440 -18 772 115 624 -18 b 50 367 221 -18 50 146 b 282 700 50 518 139 647 l 104 1035 l 654 1035 l 654 853 l 410 853 l 581 524 l 419 524 b 260 351 326 524 260 453 b 440 182 260 260 336 182 b 596 338 531 182 596 246 l 596 460 l 901 460 "},"'":{"ha":278,"x_min":0,"x_max":0,"o":"m 46 738 l 46 1053 l 261 1053 l 164 738 "},"(":{"ha":436,"x_min":0,"x_max":0,"o":"m 386 960 b 238 426 297 813 238 621 b 396 -126 238 222 297 29 l 253 -226 b 60 426 132 -35 60 190 b 251 1053 60 660 129 876 "},")":{"ha":436,"x_min":0,"x_max":0,"o":"m 185 1053 b 376 426 307 876 376 660 b 183 -226 376 190 306 -35 l 40 -126 b 200 426 139 29 200 222 b 50 960 200 621 139 813 "},"*":{"ha":517,"x_min":0,"x_max":0,"o":"m 40 711 l 167 804 l 40 897 l 104 983 l 204 910 l 204 1035 l 311 1035 l 311 910 l 413 983 l 476 897 l 349 804 l 476 711 l 413 625 l 311 699 l 311 574 l 204 574 l 204 699 l 104 625 "},"+":{"ha":803,"x_min":0,"x_max":0,"o":"m 317 154 l 317 413 l 65 413 l 65 568 l 317 568 l 317 828 l 486 828 l 486 568 l 738 568 l 738 413 l 486 413 l 486 154 "},",":{"ha":392,"x_min":0,"x_max":0,"o":"m 21 -226 l 114 89 l 336 89 l 143 -226 "},"-":{"ha":535,"x_min":0,"x_max":0,"o":"m 469 350 l 65 350 l 65 504 l 469 504 "},".":{"ha":381,"x_min":0,"x_max":0,"o":"m 190 194 b 297 88 254 194 297 147 b 190 -18 297 31 256 -18 b 83 88 126 -18 83 31 b 190 194 83 147 126 194 "},"/":{"ha":778,"x_min":0,"x_max":0,"o":"m -43 -226 l 603 1035 l 778 1035 l 142 -226 "},":":{"ha":381,"x_min":0,"x_max":0,"o":"m 190 194 b 297 88 254 194 297 147 b 190 -18 297 31 256 -18 b 83 88 126 -18 83 31 b 190 194 83 147 126 194 m 190 731 b 297 624 254 731 297 685 b 190 518 297 567 256 518 b 83 624 126 518 83 567 b 190 731 83 685 126 731 "},";":{"ha":392,"x_min":0,"x_max":0,"o":"m 21 -226 l 114 89 l 336 89 l 143 -226 m 208 731 b 317 624 272 731 317 685 b 208 518 317 567 274 518 b 101 624 146 518 101 567 b 208 731 101 685 146 731 "},"<":{"ha":593,"x_min":0,"x_max":0,"o":"m 528 993 l 528 775 l 249 489 l 528 219 l 528 1 l 40 489 "},"=":{"ha":803,"x_min":0,"x_max":0,"o":"m 713 250 l 89 250 l 89 406 l 713 406 m 713 575 l 89 575 l 89 731 l 713 731 "},">":{"ha":593,"x_min":0,"x_max":0,"o":"m 553 489 l 65 1 l 65 219 l 344 489 l 65 775 l 65 993 "},"?":{"ha":613,"x_min":0,"x_max":0,"o":"m 160 640 l 285 640 b 390 757 346 644 390 697 b 275 879 390 831 342 879 b 179 822 233 879 199 858 l 36 926 b 275 1053 89 1003 176 1053 b 572 756 442 1053 572 921 b 342 471 572 618 474 500 l 342 325 l 160 325 m 250 194 b 357 88 314 194 357 147 b 250 -18 357 31 315 -18 b 143 88 186 -18 143 31 b 250 194 143 147 186 194 "},"@":{"ha":1311,"x_min":0,"x_max":0,"o":"m 922 710 l 922 222 b 1097 532 1031 278 1097 386 b 674 915 1097 744 911 915 b 214 453 414 915 214 714 b 675 7 214 200 414 7 l 675 -142 b 56 453 314 -142 56 133 b 674 1054 56 790 328 1054 b 1256 532 999 1054 1256 821 b 767 7 1256 269 1046 47 l 767 240 b 658 210 738 219 700 210 b 394 474 507 210 394 324 b 653 740 394 610 510 740 b 779 710 694 740 738 729 m 656 364 b 768 475 718 364 768 413 b 656 586 768 536 718 586 b 546 475 597 586 546 536 b 656 364 546 413 597 364 "},"A":{"ha":1076,"x_min":0,"x_max":0,"o":"m 782 139 l 281 139 l 214 0 l -8 0 l 538 1053 l 1085 0 l 850 0 m 374 333 l 688 333 l 529 656 "},"B":{"ha":882,"x_min":0,"x_max":0,"o":"m 99 0 l 99 1035 l 431 1035 b 760 761 622 1035 760 954 b 686 586 760 689 736 632 b 826 333 779 522 826 433 b 460 0 826 122 650 0 m 467 194 b 606 326 556 194 606 246 b 467 461 606 410 556 461 l 314 461 l 314 194 m 422 649 b 539 744 526 649 539 701 b 422 840 539 824 482 840 l 314 840 l 314 649 "},"C":{"ha":1160,"x_min":0,"x_max":0,"o":"m 1121 457 b 588 -18 1090 192 863 -18 b 56 517 292 -18 56 221 b 586 1053 56 813 292 1053 b 1043 801 779 1053 950 953 l 875 682 b 588 847 800 793 694 847 b 276 517 414 847 276 700 b 588 189 276 335 414 189 b 903 457 743 189 874 301 "},"D":{"ha":1115,"x_min":0,"x_max":0,"o":"m 518 1035 b 1060 518 817 1035 1060 813 b 519 0 1060 221 817 0 l 99 0 l 99 1035 m 519 194 b 839 518 699 194 839 332 b 518 840 839 706 699 840 l 314 840 l 314 194 "},"E":{"ha":796,"x_min":0,"x_max":0,"o":"m 99 0 l 99 1035 l 649 1035 l 649 840 l 314 840 l 314 647 l 703 647 l 703 453 l 314 453 l 314 194 l 740 194 l 740 0 "},"F":{"ha":744,"x_min":0,"x_max":0,"o":"m 99 0 l 99 1035 l 649 1035 l 649 840 l 314 840 l 314 647 l 703 647 l 703 453 l 314 453 l 314 0 "},"G":{"ha":1176,"x_min":0,"x_max":0,"o":"m 1124 533 b 588 -18 1124 228 885 -18 b 56 517 292 -18 56 221 b 586 1053 56 813 292 1053 b 1043 801 779 1053 950 953 l 871 676 b 588 847 817 778 710 847 b 276 517 414 847 276 700 b 588 189 276 335 414 189 b 874 374 713 189 828 253 l 593 374 l 593 565 l 1124 565 "},"H":{"ha":1103,"x_min":0,"x_max":0,"o":"m 314 1035 l 314 647 l 789 647 l 789 1035 l 1004 1035 l 1004 0 l 789 0 l 789 453 l 314 453 l 314 0 l 99 0 l 99 1035 "},"I":{"ha":413,"x_min":0,"x_max":0,"o":"m 314 0 l 99 0 l 99 1035 l 314 1035 "},"J":{"ha":935,"x_min":0,"x_max":0,"o":"m 846 1035 l 846 463 b 394 -18 846 203 693 -18 b -33 315 185 -18 19 86 l 164 375 b 396 189 206 208 328 189 b 631 463 553 189 631 325 l 631 840 l 447 840 l 447 1035 "},"K":{"ha":1099,"x_min":0,"x_max":0,"o":"m 314 546 l 803 1035 l 1090 1035 l 582 526 l 1107 0 l 817 0 l 429 389 l 314 274 l 314 0 l 99 0 l 99 1035 l 314 1035 "},"L":{"ha":751,"x_min":0,"x_max":0,"o":"m 314 1035 l 314 194 l 731 194 l 731 0 l 99 0 l 99 1035 "},"M":{"ha":1300,"x_min":0,"x_max":0,"o":"m 1201 1053 l 1201 0 l 986 0 l 986 624 l 650 381 l 314 624 l 314 0 l 99 0 l 99 1053 l 650 635 "},"N":{"ha":1149,"x_min":0,"x_max":0,"o":"m 835 1035 l 1050 1035 l 1050 -18 l 314 594 l 314 0 l 99 0 l 99 1054 l 835 436 "},"O":{"ha":1182,"x_min":0,"x_max":0,"o":"m 592 -18 b 56 518 294 -18 56 222 b 590 1053 56 814 294 1053 b 1126 518 888 1053 1126 814 b 592 -18 1126 222 888 -18 m 590 847 b 276 518 414 847 276 700 b 592 189 276 333 414 189 b 906 518 767 189 906 333 b 590 847 906 700 765 847 "},"P":{"ha":938,"x_min":0,"x_max":0,"o":"m 99 0 l 99 1035 l 458 1035 b 888 628 701 1035 888 853 b 438 179 888 363 711 179 l 314 179 l 314 0 m 432 374 b 671 611 585 374 671 467 b 444 840 671 738 594 840 l 314 840 l 314 374 "},"Q":{"ha":1181,"x_min":0,"x_max":0,"o":"m 504 -10 b 56 517 249 31 56 251 b 590 1053 56 814 294 1053 b 1126 517 888 1053 1126 814 b 728 0 1126 269 957 60 l 1014 0 l 1014 -200 l 378 -200 m 590 847 b 276 517 414 847 276 700 b 592 189 276 333 414 189 b 906 517 767 189 906 333 b 590 847 906 700 765 847 "},"R":{"ha":938,"x_min":0,"x_max":0,"o":"m 314 179 l 314 0 l 99 0 l 99 1035 l 458 1035 b 888 628 701 1035 888 853 b 654 239 888 442 799 306 l 878 0 l 592 0 l 422 179 m 432 374 b 671 611 585 374 671 467 b 444 840 671 738 594 840 l 314 840 l 314 374 "},"S":{"ha":772,"x_min":0,"x_max":0,"o":"m 347 458 b 51 754 168 479 51 592 b 356 1053 51 929 213 1053 b 635 919 458 1053 556 1014 l 465 796 b 356 847 438 825 392 847 b 260 756 299 847 260 813 b 404 658 260 708 294 665 b 726 328 581 647 726 528 b 376 -18 726 126 558 -18 b 42 133 258 -18 140 25 l 219 264 b 376 189 267 204 315 189 b 503 313 447 189 503 246 b 347 458 503 396 447 447 "},"T":{"ha":796,"x_min":0,"x_max":0,"o":"m 282 0 l 282 840 l 26 840 l 26 1035 l 769 1035 l 769 840 l 497 840 l 497 0 "},"U":{"ha":1069,"x_min":0,"x_max":0,"o":"m 536 -18 b 89 479 233 -18 89 192 l 89 1035 l 304 1035 l 304 443 b 536 189 304 281 383 189 b 765 443 696 189 765 288 l 765 1035 l 981 1035 l 981 461 b 536 -18 981 160 813 -18 "},"V":{"ha":1046,"x_min":0,"x_max":0,"o":"m 840 1035 l 1063 1035 l 536 -18 l -17 1035 l 231 1035 l 544 428 "},"W":{"ha":1476,"x_min":0,"x_max":0,"o":"m 1274 1035 l 1497 1035 l 971 -18 l 744 408 l 532 -18 l -21 1035 l 226 1035 l 540 428 l 638 615 l 418 1035 l 665 1035 l 979 428 "},"X":{"ha":964,"x_min":0,"x_max":0,"o":"m 4 1035 l 247 1035 l 471 689 l 689 1035 l 917 1035 l 607 544 l 961 0 l 719 0 l 469 385 l 229 0 l 1 0 l 333 532 "},"Y":{"ha":1061,"x_min":0,"x_max":0,"o":"m 843 1035 l 1069 1035 l 646 333 l 646 0 l 431 0 l 431 314 l -8 1035 l 239 1035 l 542 526 "},"Z":{"ha":947,"x_min":0,"x_max":0,"o":"m 926 194 l 926 0 l 7 0 l 543 840 l 60 840 l 60 1035 l 908 1035 l 365 194 "},"[":{"ha":449,"x_min":0,"x_max":0,"o":"m 99 -226 l 99 1053 l 397 1053 l 397 914 l 261 914 l 261 -86 l 397 -86 l 397 -226 "},"\\":{"ha":778,"x_min":0,"x_max":0,"o":"m 638 -226 l 0 1035 l 176 1035 l 821 -226 "},"]":{"ha":449,"x_min":0,"x_max":0,"o":"m 50 -226 l 50 -86 l 186 -86 l 186 914 l 50 914 l 50 1053 l 349 1053 l 349 -226 "},"^":{"ha":735,"x_min":0,"x_max":0,"o":"m 596 1122 l 411 1122 l 367 1182 l 324 1122 l 138 1122 l 367 1408 "},"_":{"ha":969,"x_min":0,"x_max":0,"o":"m 997 -226 l -28 -226 l -28 -82 l 997 -82 "},"`":{"ha":1057,"x_min":0,"x_max":0,"o":"m 511 1381 l 676 1122 l 490 1122 l 382 1288 "},"a":{"ha":822,"x_min":0,"x_max":0,"o":"m 753 701 l 753 0 l 556 0 l 556 50 b 385 -15 525 10 449 -15 b 40 350 193 -15 40 150 b 385 717 40 553 197 717 b 556 653 447 717 525 686 l 556 701 m 404 181 b 564 350 496 181 564 250 b 404 519 564 449 496 519 b 240 350 314 519 240 449 b 404 181 240 250 314 181 "},"b":{"ha":822,"x_min":0,"x_max":0,"o":"m 267 1035 l 267 653 b 438 717 297 686 375 717 b 782 350 625 717 782 553 b 438 -15 782 150 629 -15 b 267 50 374 -15 297 10 l 267 0 l 69 0 l 69 1035 m 418 181 b 582 350 508 181 582 250 b 418 519 582 449 508 519 b 258 350 326 519 258 449 b 418 181 258 250 326 181 "},"c":{"ha":801,"x_min":0,"x_max":0,"o":"m 772 308 b 404 -15 751 128 593 -15 b 40 350 203 -15 40 150 b 404 717 40 553 203 717 b 692 579 519 717 624 663 l 535 457 b 404 519 499 503 453 519 b 240 350 314 519 240 449 b 404 181 240 250 314 181 b 568 308 486 181 550 231 "},"d":{"ha":822,"x_min":0,"x_max":0,"o":"m 753 1035 l 753 0 l 556 0 l 556 50 b 385 -15 525 10 449 -15 b 40 350 193 -15 40 150 b 385 717 40 553 197 717 b 556 653 447 717 525 686 l 556 1035 m 404 181 b 564 350 496 181 564 250 b 404 519 564 449 496 519 b 240 350 314 519 240 449 b 404 181 240 250 314 181 "},"e":{"ha":783,"x_min":0,"x_max":0,"o":"m 729 131 b 421 -15 669 42 546 -15 b 40 350 210 -15 40 150 b 404 717 40 553 203 717 b 754 469 578 717 711 600 l 363 189 b 421 181 381 182 400 181 b 572 251 481 181 540 201 m 240 350 b 246 304 240 333 242 318 l 501 486 b 404 519 474 507 442 519 b 240 350 314 519 240 449 "},"f":{"ha":494,"x_min":0,"x_max":0,"o":"m 475 842 b 324 718 383 842 324 786 l 324 701 l 461 701 l 461 519 l 324 519 l 324 0 l 126 0 l 126 519 l 31 519 l 31 701 l 126 701 l 126 711 b 475 1044 126 906 285 1044 "},"g":{"ha":822,"x_min":0,"x_max":0,"o":"m 394 -154 b 556 -6 485 -154 556 -89 l 556 50 b 385 -15 525 10 449 -15 b 40 350 193 -15 40 150 b 385 717 40 553 197 717 b 556 653 447 717 525 686 l 556 701 l 753 701 l 753 7 b 394 -350 753 -189 593 -350 b 96 -190 269 -350 161 -286 l 256 -75 b 394 -154 285 -124 336 -154 m 404 181 b 564 350 496 181 564 250 b 404 519 564 449 496 519 b 240 350 314 519 240 449 b 404 181 240 250 314 181 "},"h":{"ha":836,"x_min":0,"x_max":0,"o":"m 776 0 l 581 0 l 581 350 b 435 519 581 463 515 519 b 267 350 347 519 267 449 l 267 0 l 69 0 l 69 1035 l 267 1035 l 267 651 b 451 717 304 697 388 717 b 776 350 643 717 776 553 "},"i":{"ha":336,"x_min":0,"x_max":0,"o":"m 167 825 b 53 938 106 825 53 876 b 167 1046 53 993 106 1046 b 285 938 233 1046 285 994 b 167 825 285 876 233 825 m 267 0 l 69 0 l 69 701 l 267 701 "},"j":{"ha":336,"x_min":0,"x_max":0,"o":"m -75 -154 b 69 -21 4 -154 69 -103 l 69 701 l 267 701 l 267 -10 b -75 -350 267 -197 114 -350 m 167 825 b 53 938 106 825 53 876 b 167 1046 53 993 106 1046 b 285 938 233 1046 285 994 b 167 825 285 876 233 825 "},"k":{"ha":817,"x_min":0,"x_max":0,"o":"m 267 194 l 267 0 l 69 0 l 69 1035 l 267 1035 l 267 422 l 565 701 l 810 701 l 457 374 l 825 0 l 574 0 l 322 247 "},"l":{"ha":336,"x_min":0,"x_max":0,"o":"m 267 1035 l 267 0 l 69 0 l 69 1035 "},"m":{"ha":1306,"x_min":0,"x_max":0,"o":"m 754 0 l 557 0 l 557 350 b 406 519 557 471 494 519 b 267 350 332 519 267 443 l 267 0 l 69 0 l 69 701 l 267 701 l 267 653 b 439 717 299 692 378 717 b 676 606 542 717 635 669 b 926 717 743 694 854 717 b 1246 350 1142 717 1246 553 l 1246 0 l 1050 0 l 1050 350 b 906 519 1050 457 985 519 b 754 350 819 519 754 443 "},"n":{"ha":836,"x_min":0,"x_max":0,"o":"m 776 0 l 581 0 l 581 350 b 435 519 581 463 515 519 b 267 350 347 519 267 463 l 267 0 l 69 0 l 69 701 l 267 701 l 267 653 b 451 717 306 697 388 717 b 776 350 643 717 776 553 "},"o":{"ha":814,"x_min":0,"x_max":0,"o":"m 404 717 b 774 350 606 717 774 553 b 404 -15 774 150 606 -15 b 40 350 203 -15 40 150 b 404 717 40 553 203 717 m 404 181 b 572 350 500 181 572 250 b 404 519 572 449 500 519 b 240 350 314 519 240 449 b 404 181 240 250 314 181 "},"p":{"ha":822,"x_min":0,"x_max":0,"o":"m 69 -335 l 69 701 l 267 701 l 267 653 b 438 717 297 686 374 717 b 782 353 631 717 782 553 b 433 -15 782 150 625 -15 b 267 50 375 -15 304 6 l 267 -335 m 418 519 b 258 351 326 519 258 450 b 418 181 258 251 326 181 b 582 351 508 181 582 251 b 418 519 582 450 508 519 "},"q":{"ha":822,"x_min":0,"x_max":0,"o":"m 556 -335 l 556 50 b 389 -15 518 6 447 -15 b 40 353 197 -15 40 150 b 385 717 40 553 192 717 b 556 653 449 717 525 686 l 556 701 l 753 701 l 753 -335 m 404 519 b 240 351 314 519 240 450 b 404 181 240 251 314 181 b 564 351 496 181 564 251 b 404 519 564 450 496 519 "},"r":{"ha":489,"x_min":0,"x_max":0,"o":"m 471 510 b 408 519 451 517 431 519 b 267 350 332 519 267 463 l 267 0 l 69 0 l 69 701 l 267 701 l 267 653 b 422 717 310 699 368 717 b 471 714 439 717 453 717 "},"s":{"ha":558,"x_min":0,"x_max":0,"o":"m 250 282 b 32 504 122 300 32 385 b 263 717 32 626 158 717 b 472 607 353 717 422 679 l 331 504 b 267 533 313 521 293 533 b 225 497 240 533 225 518 b 300 453 225 474 242 460 b 528 225 429 436 528 369 b 258 -15 528 82 410 -15 b 17 90 154 -15 78 21 l 183 211 b 260 181 204 189 229 181 b 313 228 296 181 313 201 b 250 282 313 256 294 275 "},"t":{"ha":501,"x_min":0,"x_max":0,"o":"m 314 519 l 314 296 b 476 181 314 217 386 181 l 476 -15 b 117 290 267 -15 117 108 l 117 519 l 11 519 l 11 701 l 117 701 l 117 793 l 314 936 l 314 701 l 481 701 l 481 519 "},"u":{"ha":836,"x_min":0,"x_max":0,"o":"m 60 701 l 257 701 l 257 353 b 401 181 257 251 322 181 b 571 353 489 181 571 224 l 571 701 l 767 701 l 767 0 l 571 0 l 571 50 b 375 -15 531 6 442 -15 b 60 336 190 -15 60 143 "},"v":{"ha":711,"x_min":0,"x_max":0,"o":"m 528 701 l 719 701 l 371 -18 l -8 701 l 210 701 l 378 364 "},"w":{"ha":1029,"x_min":0,"x_max":0,"o":"m 844 701 l 1038 701 l 689 -18 l 531 313 l 372 -18 l -8 701 l 210 701 l 378 364 l 442 500 l 347 701 l 536 701 l 697 365 "},"x":{"ha":721,"x_min":0,"x_max":0,"o":"m 228 0 l -3 0 l 251 374 l 46 701 l 250 701 l 361 518 l 471 701 l 676 701 l 469 374 l 725 0 l 494 0 l 361 207 "},"y":{"ha":797,"x_min":0,"x_max":0,"o":"m -8 701 l 208 701 l 411 267 l 610 701 l 806 701 l 324 -335 l 119 -335 l 307 67 "},"z":{"ha":651,"x_min":0,"x_max":0,"o":"m 11 0 l 324 519 l 53 519 l 53 701 l 631 701 l 339 188 l 626 188 l 626 0 "},"{":{"ha":492,"x_min":0,"x_max":0,"o":"m 165 172 b 17 347 165 260 115 347 l 17 479 b 165 656 115 479 165 567 l 165 746 b 240 968 165 839 190 917 b 451 1053 290 1024 364 1053 l 451 906 b 318 746 363 906 318 825 l 318 656 b 243 432 318 563 290 486 b 224 413 239 426 231 419 l 243 394 b 318 172 290 342 318 265 l 318 81 b 451 -78 318 1 363 -78 l 451 -226 b 240 -142 364 -226 290 -197 b 165 81 190 -89 165 -11 "},"|":{"ha":347,"x_min":0,"x_max":0,"o":"m 249 -275 l 99 -275 l 99 1033 l 249 1033 "},"}":{"ha":492,"x_min":0,"x_max":0,"o":"m 326 81 b 251 -142 326 -11 301 -89 b 40 -226 201 -197 128 -226 l 40 -78 b 174 81 129 -78 174 1 l 174 172 b 249 394 174 265 201 342 l 268 413 b 249 432 261 419 253 426 b 174 656 201 486 174 563 l 174 746 b 40 906 174 825 129 906 l 40 1053 b 251 968 128 1053 201 1024 b 326 746 301 917 326 839 l 326 656 b 476 479 326 567 376 479 l 476 347 b 326 172 376 347 326 260 l 326 81 "},"~":{"ha":1168,"x_min":0,"x_max":0,"o":"m 263 1232 b 485 1342 328 1311 394 1342 b 674 1292 560 1342 613 1292 b 757 1342 701 1292 731 1311 l 896 1242 b 697 1122 849 1179 782 1122 b 514 1179 621 1122 578 1179 b 401 1129 469 1179 444 1165 "},"Ä":{"ha":1076,"x_min":0,"x_max":0,"o":"m 438 1207 b 349 1118 438 1154 400 1118 b 263 1207 301 1118 263 1153 b 349 1293 263 1258 301 1293 b 438 1207 400 1293 438 1258 m 799 1207 b 710 1118 799 1154 760 1118 b 625 1207 664 1118 625 1153 b 710 1293 625 1258 664 1293 b 799 1207 760 1293 799 1258 m 782 139 l 281 139 l 214 0 l -8 0 l 538 1053 l 1085 0 l 850 0 m 374 333 l 688 333 l 529 656 "},"Å":{"ha":1076,"x_min":0,"x_max":0,"o":"m 531 1115 b 381 1265 449 1115 381 1183 b 531 1422 381 1354 449 1422 b 688 1265 619 1422 688 1354 b 531 1115 688 1183 619 1115 m 531 1310 b 492 1265 510 1310 492 1292 b 531 1225 492 1244 510 1225 b 571 1265 556 1225 571 1244 b 531 1310 571 1292 556 1310 m 782 139 l 281 139 l 214 0 l -8 0 l 538 1053 l 1085 0 l 850 0 m 374 333 l 688 333 l 529 656 "},"Ç":{"ha":1160,"x_min":0,"x_max":0,"o":"m 1121 457 b 653 -14 1093 214 897 15 l 625 -49 l 831 -49 l 831 -217 l 325 -217 l 467 -3 b 56 517 229 50 56 264 b 586 1053 56 813 292 1053 b 1043 801 779 1053 950 953 l 875 682 b 588 847 800 793 694 847 b 276 517 414 847 276 700 b 588 189 276 335 414 189 b 903 457 743 189 874 301 "},"É":{"ha":796,"x_min":0,"x_max":0,"o":"m 586 1288 l 478 1122 l 292 1122 l 457 1381 m 99 0 l 99 1035 l 649 1035 l 649 840 l 314 840 l 314 647 l 703 647 l 703 453 l 314 453 l 314 194 l 740 194 l 740 0 "},"Ñ":{"ha":1149,"x_min":0,"x_max":0,"o":"m 253 1232 b 474 1342 318 1311 385 1342 b 664 1292 550 1342 603 1292 b 747 1342 692 1292 721 1311 l 885 1242 b 688 1122 839 1179 772 1122 b 504 1179 611 1122 568 1179 b 392 1129 460 1179 435 1165 m 835 1035 l 1050 1035 l 1050 -18 l 314 594 l 314 0 l 99 0 l 99 1054 l 835 436 "},"Ö":{"ha":1182,"x_min":0,"x_max":0,"o":"m 592 -18 b 56 518 294 -18 56 222 b 590 1053 56 814 294 1053 b 1126 518 888 1053 1126 814 b 592 -18 1126 222 888 -18 m 590 847 b 276 518 414 847 276 700 b 592 189 276 333 414 189 b 906 518 767 189 906 333 b 590 847 906 700 765 847 m 499 1207 b 411 1118 499 1154 461 1118 b 325 1207 364 1118 325 1153 b 411 1293 325 1258 364 1293 b 499 1207 461 1293 499 1258 m 861 1207 b 772 1118 861 1154 822 1118 b 688 1207 726 1118 688 1153 b 772 1293 688 1258 726 1293 b 861 1207 822 1293 861 1258 "},"Ü":{"ha":1068,"x_min":0,"x_max":0,"o":"m 536 -18 b 89 479 233 -18 89 192 l 89 1035 l 304 1035 l 304 443 b 536 189 304 281 383 189 b 767 443 697 189 767 288 l 767 1035 l 979 1035 l 979 461 b 536 -18 979 160 811 -18 m 449 1207 b 361 1118 449 1154 411 1118 b 275 1207 314 1118 275 1153 b 361 1293 275 1258 314 1293 b 449 1207 411 1293 449 1258 m 811 1207 b 721 1118 811 1154 772 1118 b 636 1207 676 1118 636 1153 b 721 1293 636 1258 676 1293 b 811 1207 772 1293 811 1258 "},"á":{"ha":822,"x_min":0,"x_max":0,"o":"m 624 963 l 515 797 l 329 797 l 494 1056 m 753 701 l 753 0 l 556 0 l 556 50 b 385 -15 525 10 449 -15 b 40 350 193 -15 40 150 b 385 717 40 553 197 717 b 556 653 447 717 525 686 l 556 701 m 404 181 b 564 350 496 181 564 250 b 404 519 564 449 496 519 b 240 350 314 519 240 449 b 404 181 240 250 314 181 "},"à":{"ha":822,"x_min":0,"x_max":0,"o":"m 383 1056 l 547 797 l 363 797 l 253 963 m 753 701 l 753 0 l 556 0 l 556 50 b 385 -15 525 10 449 -15 b 40 350 193 -15 40 150 b 385 717 40 553 197 717 b 556 653 447 717 525 686 l 556 701 m 404 181 b 564 350 496 181 564 250 b 404 519 564 449 496 519 b 240 350 314 519 240 449 b 404 181 240 250 314 181 "},"â":{"ha":822,"x_min":0,"x_max":0,"o":"m 644 797 l 460 797 l 415 857 l 372 797 l 186 797 l 415 1083 m 753 701 l 753 0 l 556 0 l 556 50 b 385 -15 525 10 449 -15 b 40 350 193 -15 40 150 b 385 717 40 553 197 717 b 556 653 447 717 525 686 l 556 701 m 404 181 b 564 350 496 181 564 250 b 404 519 564 449 496 519 b 240 350 314 519 240 449 b 404 181 240 250 314 181 "},"ä":{"ha":822,"x_min":0,"x_max":0,"o":"m 328 882 b 240 793 328 829 290 793 b 154 882 193 793 154 828 b 240 968 154 933 193 968 b 328 882 290 968 328 933 m 690 882 b 601 793 690 829 651 793 b 517 882 556 793 517 828 b 601 968 517 933 556 968 b 690 882 651 968 690 933 m 753 701 l 753 0 l 556 0 l 556 50 b 385 -15 525 10 449 -15 b 40 350 193 -15 40 150 b 385 717 40 553 197 717 b 556 653 447 717 525 686 l 556 701 m 404 181 b 564 350 496 181 564 250 b 404 519 564 449 496 519 b 240 350 314 519 240 449 b 404 181 240 250 314 181 "},"ã":{"ha":822,"x_min":0,"x_max":0,"o":"m 117 907 b 338 1017 182 986 249 1017 b 528 967 414 1017 467 967 b 611 1017 556 967 585 986 l 749 917 b 550 797 701 854 635 797 b 367 854 474 797 432 854 b 256 804 324 854 299 840 m 753 701 l 753 0 l 556 0 l 556 50 b 385 -15 525 10 449 -15 b 40 350 193 -15 40 150 b 385 717 40 553 197 717 b 556 653 447 717 525 686 l 556 701 m 404 181 b 564 350 496 181 564 250 b 404 519 564 449 496 519 b 240 350 314 519 240 449 b 404 181 240 250 314 181 "},"å":{"ha":822,"x_min":0,"x_max":0,"o":"m 411 790 b 260 940 328 790 260 858 b 411 1097 260 1029 328 1097 b 567 940 499 1097 567 1029 b 411 790 567 858 499 790 m 411 985 b 372 940 390 985 372 967 b 411 900 372 919 390 900 b 450 940 435 900 450 919 b 411 985 450 967 435 985 m 753 701 l 753 0 l 556 0 l 556 50 b 385 -15 525 10 449 -15 b 40 350 193 -15 40 150 b 385 717 40 553 197 717 b 556 653 447 717 525 686 l 556 701 m 404 181 b 564 350 496 181 564 250 b 404 519 564 449 496 519 b 240 350 314 519 240 449 b 404 181 240 250 314 181 "},"ç":{"ha":803,"x_min":0,"x_max":0,"o":"m 774 322 b 469 -8 761 156 632 19 l 440 -49 l 644 -49 l 644 -217 l 139 -217 l 286 6 b 40 350 143 54 40 190 b 404 717 40 553 203 717 b 692 579 519 717 624 663 l 533 456 b 404 519 504 499 453 519 b 240 350 314 519 240 449 b 404 181 240 250 314 181 b 571 322 490 181 558 238 "},"é":{"ha":794,"x_min":0,"x_max":0,"o":"m 729 131 b 421 -15 669 42 546 -15 b 40 350 210 -15 40 150 b 404 717 40 553 203 717 b 754 469 578 717 711 600 l 363 189 b 421 181 381 182 400 181 b 572 251 481 181 540 201 m 547 963 l 439 797 l 253 797 l 418 1056 m 240 350 b 243 318 240 338 242 328 l 490 494 b 404 519 467 510 438 519 b 240 350 314 519 240 449 "},"è":{"ha":794,"x_min":0,"x_max":0,"o":"m 729 131 b 421 -15 669 42 546 -15 b 40 350 210 -15 40 150 b 404 717 40 553 203 717 b 754 469 578 717 711 600 l 363 189 b 421 181 381 182 400 181 b 572 251 481 181 540 201 m 335 1056 l 499 797 l 314 797 l 204 963 m 240 350 b 243 318 240 338 242 328 l 490 494 b 404 519 467 510 438 519 b 240 350 314 519 240 449 "},"ê":{"ha":794,"x_min":0,"x_max":0,"o":"m 729 131 b 421 -15 669 42 546 -15 b 40 350 210 -15 40 150 b 404 717 40 553 203 717 b 754 469 578 717 711 600 l 363 189 b 421 181 381 182 400 181 b 572 251 481 181 540 201 m 613 797 l 428 797 l 383 857 l 339 797 l 154 797 l 383 1083 m 240 350 b 243 318 240 338 242 328 l 490 494 b 404 519 467 510 438 519 b 240 350 314 519 240 449 "},"ë":{"ha":794,"x_min":0,"x_max":0,"o":"m 729 131 b 421 -15 669 42 546 -15 b 40 350 210 -15 40 150 b 404 717 40 553 203 717 b 754 469 578 717 711 600 l 363 189 b 421 181 381 182 400 181 b 572 251 481 181 540 201 m 292 882 b 204 793 292 829 256 793 b 118 882 157 793 118 828 b 204 968 118 933 157 968 b 292 882 256 968 292 933 m 654 882 b 565 793 654 829 615 793 b 481 882 519 793 481 828 b 565 968 481 933 519 968 b 654 882 615 968 654 933 m 240 350 b 243 318 240 338 242 328 l 490 494 b 404 519 467 510 438 519 b 240 350 314 519 240 449 "},"í":{"ha":336,"x_min":0,"x_max":0,"o":"m 364 963 l 256 797 l 69 797 l 233 1056 m 267 0 l 69 0 l 69 701 l 267 701 "},"ì":{"ha":336,"x_min":0,"x_max":0,"o":"m 267 0 l 69 0 l 69 701 l 267 701 m 103 1056 l 267 797 l 82 797 l -28 963 "},"î":{"ha":336,"x_min":0,"x_max":0,"o":"m 267 0 l 69 0 l 69 701 l 267 701 m 400 797 l 214 797 l 171 857 l 126 797 l -58 797 l 171 1083 "},"ï":{"ha":336,"x_min":0,"x_max":0,"o":"m 267 0 l 69 0 l 69 701 l 267 701 m 75 882 b -12 793 75 829 38 793 b -99 882 -60 793 -99 828 b -12 968 -99 933 -60 968 b 75 882 38 968 75 933 m 438 882 b 347 793 438 829 399 793 b 264 882 303 793 264 828 b 347 968 264 933 303 968 b 438 882 399 968 438 933 "},"ñ":{"ha":836,"x_min":0,"x_max":0,"o":"m 85 907 b 306 1017 149 986 215 1017 b 496 967 382 1017 433 967 b 578 1017 524 967 553 986 l 717 917 b 518 797 669 854 603 797 b 335 854 442 797 400 854 b 222 804 290 854 267 840 m 776 0 l 581 0 l 581 350 b 435 519 581 463 515 519 b 267 350 347 519 267 463 l 267 0 l 69 0 l 69 701 l 267 701 l 267 653 b 451 717 306 697 388 717 b 776 350 643 717 776 553 "},"ó":{"ha":814,"x_min":0,"x_max":0,"o":"m 404 717 b 774 350 606 717 774 553 b 404 -15 774 150 606 -15 b 40 350 203 -15 40 150 b 404 717 40 553 203 717 m 404 181 b 572 350 500 181 572 250 b 404 519 572 449 500 519 b 240 350 314 519 240 449 b 404 181 240 250 314 181 m 607 963 l 499 797 l 314 797 l 478 1056 "},"ò":{"ha":814,"x_min":0,"x_max":0,"o":"m 404 717 b 774 350 606 717 774 553 b 404 -15 774 150 606 -15 b 40 350 203 -15 40 150 b 404 717 40 553 203 717 m 404 181 b 572 350 500 181 572 250 b 404 519 572 449 500 519 b 240 350 314 519 240 449 b 404 181 240 250 314 181 m 318 1056 l 482 797 l 297 797 l 189 963 "},"ô":{"ha":814,"x_min":0,"x_max":0,"o":"m 404 717 b 774 350 606 717 774 553 b 404 -15 774 150 606 -15 b 40 350 203 -15 40 150 b 404 717 40 553 203 717 m 404 181 b 572 350 500 181 572 250 b 404 519 572 449 500 519 b 240 350 314 519 240 449 b 404 181 240 250 314 181 m 629 797 l 443 797 l 400 857 l 356 797 l 171 797 l 400 1083 "},"ö":{"ha":814,"x_min":0,"x_max":0,"o":"m 404 717 b 774 350 606 717 774 553 b 404 -15 774 150 606 -15 b 40 350 203 -15 40 150 b 404 717 40 553 203 717 m 404 181 b 572 350 500 181 572 250 b 404 519 572 449 500 519 b 240 350 314 519 240 449 b 404 181 240 250 314 181 m 308 882 b 221 793 308 829 271 793 b 135 882 174 793 135 828 b 221 968 135 933 174 968 b 308 882 271 968 308 933 m 671 882 b 582 793 671 829 632 793 b 497 882 536 793 497 828 b 582 968 497 933 536 968 b 671 882 632 968 671 933 "},"õ":{"ha":814,"x_min":0,"x_max":0,"o":"m 404 717 b 774 350 606 717 774 553 b 404 -15 774 150 606 -15 b 40 350 203 -15 40 150 b 404 717 40 553 203 717 m 404 181 b 572 350 500 181 572 250 b 404 519 572 449 500 519 b 240 350 314 519 240 449 b 404 181 240 250 314 181 m 100 907 b 322 1017 165 986 232 1017 b 511 967 397 1017 450 967 b 594 1017 539 967 568 986 l 733 917 b 535 797 686 854 619 797 b 351 854 458 797 415 854 b 239 804 307 854 282 840 "},"ú":{"ha":836,"x_min":0,"x_max":0,"o":"m 613 963 l 504 797 l 318 797 l 482 1056 m 60 701 l 257 701 l 257 353 b 401 181 257 251 322 181 b 571 353 489 181 571 224 l 571 701 l 767 701 l 767 0 l 571 0 l 571 50 b 375 -15 531 6 442 -15 b 60 336 190 -15 60 143 "},"ù":{"ha":836,"x_min":0,"x_max":0,"o":"m 351 1056 l 515 797 l 329 797 l 221 963 m 60 701 l 257 701 l 257 353 b 401 181 257 251 322 181 b 571 353 489 181 571 224 l 571 701 l 767 701 l 767 0 l 571 0 l 571 50 b 375 -15 531 6 442 -15 b 60 336 190 -15 60 143 "},"û":{"ha":836,"x_min":0,"x_max":0,"o":"m 644 797 l 460 797 l 415 857 l 372 797 l 186 797 l 415 1083 m 60 701 l 257 701 l 257 353 b 401 181 257 251 322 181 b 571 353 489 181 571 224 l 571 701 l 767 701 l 767 0 l 571 0 l 571 50 b 375 -15 531 6 442 -15 b 60 336 190 -15 60 143 "},"ü":{"ha":836,"x_min":0,"x_max":0,"o":"m 318 882 b 231 793 318 829 281 793 b 144 882 183 793 144 828 b 231 968 144 933 183 968 b 318 882 281 968 318 933 m 681 882 b 592 793 681 829 642 793 b 507 882 546 793 507 828 b 592 968 507 933 546 968 b 681 882 642 968 681 933 m 60 701 l 257 701 l 257 353 b 401 181 257 251 322 181 b 571 353 489 181 571 224 l 571 701 l 767 701 l 767 0 l 571 0 l 571 50 b 375 -15 531 6 442 -15 b 60 336 190 -15 60 143 "},"†":{"ha":708,"x_min":0,"x_max":0,"o":"m 444 621 l 444 0 l 263 0 l 263 621 l 65 621 l 65 778 l 263 778 l 263 1035 l 444 1035 l 444 778 l 643 778 l 643 621 "},"°":{"ha":469,"x_min":0,"x_max":0,"o":"m 218 733 b 60 890 132 733 60 804 b 218 1053 60 982 132 1053 b 381 890 308 1053 381 982 b 218 733 381 804 308 733 m 218 936 b 176 890 194 936 176 918 b 218 849 176 868 194 849 b 258 890 243 849 258 868 b 218 936 258 918 243 936 "},"¢":{"ha":1160,"x_min":0,"x_max":0,"o":"m 1121 457 b 660 -12 1093 214 901 19 l 660 -118 l 510 -118 l 510 -11 b 56 517 251 25 56 247 b 510 1046 56 786 251 1010 l 510 1147 l 660 1147 l 660 1049 b 1043 801 822 1025 963 933 l 875 682 b 588 847 800 793 694 847 b 276 517 414 847 276 700 b 588 189 276 335 414 189 b 903 457 743 189 874 301 "},"£":{"ha":875,"x_min":0,"x_max":0,"o":"m 65 601 l 151 601 l 151 721 b 500 1051 151 914 318 1051 b 803 900 606 1051 715 1010 l 635 778 b 500 844 596 828 553 844 b 365 721 428 844 365 788 l 365 601 l 533 601 l 533 406 l 365 406 l 365 194 l 531 194 b 672 269 586 194 632 213 l 833 151 b 531 0 746 42 636 0 l 65 0 l 65 194 l 151 194 l 151 406 l 65 406 "},"§":{"ha":764,"x_min":0,"x_max":0,"o":"m 371 1129 b 657 822 529 1129 657 997 l 492 822 b 371 963 492 897 438 963 b 251 847 297 963 251 910 b 375 729 251 785 308 729 b 676 431 543 729 676 596 b 585 218 676 346 642 271 b 676 18 639 165 676 93 b 381 -267 676 -140 540 -267 b 96 40 221 -267 96 -133 l 260 40 b 381 -99 260 -32 315 -99 b 500 18 454 -99 500 -47 b 375 133 500 78 443 133 b 79 431 213 133 79 267 b 165 644 79 513 113 590 b 76 847 108 697 76 768 b 371 1129 76 1004 211 1129 m 378 563 b 256 431 314 563 256 503 b 381 297 256 360 311 297 b 501 431 450 297 501 361 b 378 563 501 503 447 563 "},"•":{"ha":379,"x_min":0,"x_max":0,"o":"m 190 622 b 329 482 272 622 329 561 b 190 344 329 408 275 344 b 50 482 107 344 50 408 b 190 622 50 561 107 622 "},"¶":{"ha":946,"x_min":0,"x_max":0,"o":"m 885 1035 l 885 914 l 788 914 l 788 0 l 667 0 l 667 914 l 526 914 l 526 0 l 404 0 l 404 304 l 388 304 b 40 671 196 304 40 468 b 404 1035 40 871 203 1035 "},"ß":{"ha":1368,"x_min":0,"x_max":0,"o":"m 65 601 l 146 601 l 146 721 b 496 1051 146 914 314 1051 b 758 949 597 1051 692 1014 b 949 1017 815 992 883 1017 b 1207 900 1043 1017 1135 982 l 1042 781 b 949 818 1015 803 979 818 b 858 728 897 818 858 792 b 997 635 858 685 892 642 b 1308 317 1165 624 1308 508 b 968 -18 1308 122 1147 -18 b 647 128 854 -18 740 22 l 815 254 b 968 181 863 197 910 181 b 1094 300 1042 181 1094 236 b 940 442 1094 383 1042 431 b 643 729 763 463 643 571 b 507 844 643 797 575 844 b 361 721 440 844 361 801 l 361 0 l 146 0 l 146 406 l 65 406 "},"®":{"ha":1182,"x_min":0,"x_max":0,"o":"m 592 -18 b 56 518 294 -18 56 222 b 590 1053 56 814 294 1053 b 1126 518 888 1053 1126 814 b 592 -18 1126 222 888 -18 m 590 921 b 206 518 374 921 206 740 b 592 115 206 292 374 115 b 976 518 807 115 976 292 b 590 921 976 740 804 921 m 542 356 l 542 272 l 411 272 l 411 788 l 592 788 b 811 581 715 788 811 700 b 710 396 811 501 768 431 l 828 272 l 651 272 l 571 356 m 567 478 b 675 572 636 478 675 511 b 586 667 675 625 644 667 l 542 667 l 542 478 "},"©":{"ha":1182,"x_min":0,"x_max":0,"o":"m 592 -18 b 56 518 294 -18 56 222 b 590 1053 56 814 294 1053 b 1126 518 888 1053 1126 814 b 592 -18 1126 222 888 -18 m 590 921 b 206 518 374 921 206 740 b 592 115 206 292 374 115 b 976 518 807 115 976 292 b 590 921 976 740 804 921 m 867 514 b 597 250 857 368 742 250 b 331 514 449 250 331 367 b 596 785 331 663 449 785 b 831 644 692 785 782 729 l 726 567 b 597 657 696 622 651 657 b 464 514 524 657 464 593 b 597 376 464 442 524 376 b 733 514 667 376 729 440 "},"™":{"ha":1182,"x_min":0,"x_max":0,"o":"m 156 472 l 156 901 l 26 901 l 26 1035 l 429 1035 l 429 901 l 299 901 l 299 472 m 1083 1053 l 1083 472 l 944 472 l 944 771 l 786 658 l 631 771 l 631 472 l 486 472 l 486 1053 l 786 828 "},"´":{"ha":1251,"x_min":0,"x_max":0,"o":"m 775 1288 l 667 1122 l 481 1122 l 644 1381 "},"¨":{"ha":999,"x_min":0,"x_max":0,"o":"m 394 1207 b 307 1118 394 1154 357 1118 b 221 1207 260 1118 221 1153 b 307 1293 221 1258 260 1293 b 394 1207 357 1293 394 1258 m 757 1207 b 668 1118 757 1154 718 1118 b 583 1207 622 1118 583 1153 b 668 1293 583 1258 622 1293 b 757 1207 718 1293 757 1258 "},"≠":{"ha":803,"x_min":0,"x_max":0,"o":"m 153 143 l 200 250 l 89 250 l 89 406 l 271 406 l 347 575 l 89 575 l 89 731 l 418 731 l 469 847 l 635 847 l 585 731 l 713 731 l 713 575 l 515 575 l 442 406 l 713 406 l 713 250 l 374 250 l 326 143 "},"Æ":{"ha":1547,"x_min":0,"x_max":0,"o":"m 850 0 l 782 139 l 281 139 l 214 0 l -8 0 l 538 1053 l 850 453 l 850 1035 l 1399 1035 l 1399 840 l 1064 840 l 1064 647 l 1454 647 l 1454 454 l 1064 454 l 1064 194 l 1492 194 l 1492 0 m 374 333 l 688 333 l 529 656 "},"Ø":{"ha":1182,"x_min":0,"x_max":0,"o":"m 93 -18 l 208 143 b 56 518 114 239 56 372 b 590 1053 56 814 294 1053 b 824 1000 674 1053 754 1033 l 850 1035 l 1088 1035 l 979 886 b 1126 518 1071 790 1126 660 b 592 -18 1126 222 888 -18 b 367 31 511 -18 435 0 l 333 -18 m 590 847 b 276 518 414 847 276 700 b 336 319 276 443 299 375 l 699 825 b 590 847 664 839 626 847 m 906 518 b 850 704 906 586 883 651 l 492 204 b 592 189 524 193 556 189 b 906 518 767 189 906 333 "},"∞":{"ha":1340,"x_min":0,"x_max":0,"o":"m 951 35 b 669 179 835 35 733 92 b 392 35 607 92 507 35 b 46 379 199 35 46 190 b 390 724 46 571 199 724 b 669 581 506 724 607 667 b 950 724 733 667 833 724 b 1294 379 1142 724 1294 571 b 951 35 1294 190 1142 35 m 390 574 b 204 379 289 574 204 486 b 392 185 204 271 289 185 b 592 379 504 185 592 271 b 390 574 592 486 501 574 m 950 574 b 749 379 842 574 749 486 b 951 185 749 271 842 185 b 1136 379 1054 185 1136 271 b 950 574 1136 486 1053 574 "},"±":{"ha":851,"x_min":0,"x_max":0,"o":"m 347 317 l 347 575 l 89 575 l 89 731 l 347 731 l 347 990 l 504 990 l 504 731 l 763 731 l 763 575 l 504 575 l 504 317 m 763 56 l 89 56 l 89 211 l 763 211 "},"≤":{"ha":579,"x_min":0,"x_max":0,"o":"m 490 993 l 490 810 l 271 624 l 490 442 l 490 256 l 58 624 m 490 56 l 50 56 l 50 197 l 490 197 "},"≥":{"ha":579,"x_min":0,"x_max":0,"o":"m 521 624 l 89 256 l 89 442 l 308 624 l 89 810 l 89 993 m 89 197 l 529 197 l 529 56 l 89 56 "},"¥":{"ha":1061,"x_min":0,"x_max":0,"o":"m 232 390 l 413 390 l -8 1035 l 239 1035 l 546 551 l 849 1035 l 1069 1035 l 650 390 l 842 390 l 842 211 l 644 211 l 644 0 l 431 0 l 431 211 l 232 211 "},"µ":{"ha":836,"x_min":0,"x_max":0,"o":"m 76 701 l 257 701 l 257 328 b 401 165 257 233 324 165 b 571 336 489 165 571 238 l 571 701 l 750 701 l 750 0 l 571 0 l 571 50 b 375 -15 531 6 442 -15 b 257 18 333 -15 292 -3 l 257 -335 l 76 -335 "},"∂":{"ha":843,"x_min":0,"x_max":0,"o":"m 593 647 b 383 853 593 785 494 843 l 383 1011 b 708 832 508 1011 638 950 b 774 475 761 744 774 611 l 774 350 b 404 -15 774 150 606 -15 b 40 350 203 -15 40 150 b 404 717 40 553 203 717 b 593 647 478 717 536 690 m 404 168 b 583 350 507 168 583 243 b 404 533 583 456 507 533 b 228 350 307 533 228 456 b 404 168 228 243 307 168 "},"∑":{"ha":765,"x_min":0,"x_max":0,"o":"m 319 163 l 729 163 l 729 0 l 17 0 l 342 522 l 17 1035 l 729 1035 l 729 872 l 319 872 l 539 519 "},"∏":{"ha":1014,"x_min":0,"x_max":0,"o":"m 99 0 l 99 1035 l 914 1035 l 914 0 l 717 0 l 717 850 l 296 850 l 296 0 "},"π":{"ha":1178,"x_min":0,"x_max":0,"o":"m 181 0 l 181 850 l 56 850 l 56 1035 l 1122 1035 l 1122 850 l 996 850 l 996 0 l 797 0 l 797 850 l 378 850 l 378 0 "},"∫":{"ha":675,"x_min":0,"x_max":0,"o":"m 124 886 b 424 1169 124 1051 268 1169 b 683 1040 515 1169 610 1135 l 540 935 b 424 993 507 976 469 993 b 308 886 361 993 308 944 l 308 -121 b 8 -404 308 -286 164 -404 b -253 -275 -83 -404 -178 -369 l -110 -169 b 8 -228 -75 -211 -37 -228 b 124 -121 71 -228 124 -179 "},"ª":{"ha":688,"x_min":0,"x_max":0,"o":"m 42 360 l 646 360 l 646 211 l 42 211 m 451 543 l 226 543 l 193 472 l 42 472 l 344 1046 l 644 472 l 488 472 m 290 675 l 386 675 l 339 772 "},"º":{"ha":638,"x_min":0,"x_max":0,"o":"m 42 360 l 596 360 l 596 211 l 42 211 m 318 463 b 28 753 158 463 28 593 b 318 1044 28 915 158 1044 b 610 753 481 1044 610 915 b 318 463 610 593 481 463 m 321 893 b 188 753 249 893 188 829 b 321 611 188 679 249 611 b 454 753 393 611 454 679 b 321 893 454 829 393 893 "},"Ω":{"ha":1149,"x_min":0,"x_max":0,"o":"m 688 150 b 911 533 819 201 911 350 b 574 889 911 731 760 889 b 235 533 386 889 235 731 b 460 150 235 351 328 201 l 460 0 l 88 0 l 88 150 l 214 150 b 56 533 115 251 56 386 b 574 1053 56 821 288 1053 b 1093 533 861 1053 1093 821 b 932 150 1093 385 1032 250 l 1060 150 l 1060 0 l 688 0 "},"æ":{"ha":1325,"x_min":0,"x_max":0,"o":"m 753 701 l 753 657 b 936 717 789 694 868 717 b 1285 469 1110 717 1243 600 l 893 189 b 951 181 911 182 931 181 b 1103 251 1013 181 1072 201 l 1261 131 b 951 -15 1200 42 1078 -15 b 753 49 878 -15 793 8 l 753 0 l 556 0 l 556 50 b 383 -15 518 10 439 -15 b 40 350 194 -15 40 150 b 404 717 40 553 203 717 b 556 657 451 717 519 699 l 556 701 m 404 181 b 572 342 497 181 568 247 l 572 350 b 404 519 572 449 500 519 b 240 350 314 519 240 449 b 404 181 240 250 314 181 m 772 350 b 775 318 772 338 774 328 l 1022 494 b 936 519 997 510 968 519 b 772 350 844 519 772 449 "},"ø":{"ha":814,"x_min":0,"x_max":0,"o":"m 404 717 b 517 699 443 717 481 710 l 528 717 l 703 717 l 650 622 b 774 350 725 554 774 458 b 404 -15 774 150 606 -15 b 296 1 367 -15 329 -8 l 288 -15 l 104 -15 l 160 79 b 40 350 86 146 40 242 b 404 717 40 553 203 717 m 404 181 b 572 350 500 181 572 250 b 546 442 572 383 563 417 l 397 181 l 404 181 m 240 350 b 263 260 240 315 249 285 l 414 519 l 404 519 b 240 350 314 519 240 449 "},"¿":{"ha":613,"x_min":0,"x_max":0,"o":"m 453 394 l 338 394 b 222 278 269 394 222 342 b 338 156 222 204 271 156 b 433 213 378 156 414 178 l 576 108 b 338 -18 524 32 435 -18 b 40 279 171 -18 40 114 b 271 563 40 417 136 533 l 271 710 l 453 710 m 363 840 b 256 947 299 840 256 888 b 363 1053 256 1004 297 1053 b 469 947 425 1053 469 1004 b 363 840 469 888 425 840 "},"¡":{"ha":321,"x_min":0,"x_max":0,"o":"m 251 0 l 69 0 l 69 708 l 251 708 m 161 840 b 53 947 97 840 53 888 b 161 1053 53 1004 96 1053 b 268 947 224 1053 268 1004 b 161 840 268 888 224 840 "},"¬":{"ha":692,"x_min":0,"x_max":0,"o":"m 667 367 l 526 367 l 526 499 l 21 499 l 21 639 l 667 639 "},"√":{"ha":1061,"x_min":0,"x_max":0,"o":"m 469 226 l 944 1169 l 1103 1169 l 467 -93 l 203 429 l 71 429 l 71 568 l 296 568 "},"ƒ":{"ha":581,"x_min":0,"x_max":0,"o":"m 163 506 l 76 506 l 76 701 l 163 701 l 163 721 b 511 1051 163 914 329 1051 l 511 844 b 376 721 439 844 376 788 l 376 701 l 503 701 l 503 506 l 376 506 l 376 6 b 28 -325 376 -187 210 -325 l 28 -118 b 163 6 100 -118 163 -61 "},"≈":{"ha":811,"x_min":0,"x_max":0,"o":"m 89 663 b 310 774 154 743 221 774 b 500 724 386 774 439 724 b 583 774 528 724 557 743 l 721 672 b 524 554 674 611 607 554 b 339 611 447 554 404 611 b 228 561 296 611 271 596 m 89 338 b 310 449 154 418 221 449 b 500 399 386 449 439 399 b 583 449 528 399 557 418 l 721 347 b 524 229 674 286 607 229 b 339 286 447 229 404 286 b 228 236 296 286 271 271 "},"∆":{"ha":1051,"x_min":0,"x_max":0,"o":"m 757 194 l 526 671 l 292 194 m -3 0 l 526 1053 l 1054 0 "},"«":{"ha":999,"x_min":0,"x_max":0,"o":"m 449 886 l 536 758 l 246 517 l 536 275 l 449 147 l 17 517 m 871 886 l 958 758 l 668 517 l 958 275 l 871 147 l 439 517 "},"»":{"ha":999,"x_min":0,"x_max":0,"o":"m 983 517 l 550 147 l 463 275 l 754 517 l 463 758 l 550 886 m 560 517 l 128 147 l 40 275 l 332 517 l 40 758 l 128 886 "},"…":{"ha":1281,"x_min":0,"x_max":0,"o":"m 211 194 b 318 88 275 194 318 147 b 211 -18 318 31 276 -18 b 104 88 147 -18 104 31 b 211 194 104 147 147 194 m 640 194 b 747 88 703 194 747 147 b 640 -18 747 31 706 -18 b 533 88 576 -18 533 31 b 640 194 533 147 576 194 m 1069 194 b 1176 88 1132 194 1176 147 b 1069 -18 1176 31 1135 -18 b 961 88 1006 -18 961 31 b 1069 194 961 147 1006 194 "},"À":{"ha":1076,"x_min":0,"x_max":0,"o":"m 454 1381 l 619 1122 l 433 1122 l 325 1288 m 782 139 l 281 139 l 214 0 l -8 0 l 538 1053 l 1085 0 l 850 0 m 374 333 l 688 333 l 529 656 "},"Ã":{"ha":1076,"x_min":0,"x_max":0,"o":"m 238 1232 b 458 1342 301 1311 368 1342 b 649 1292 535 1342 586 1292 b 731 1342 676 1292 706 1311 l 869 1242 b 671 1122 822 1179 756 1122 b 488 1179 594 1122 553 1179 b 375 1129 443 1179 419 1165 m 782 139 l 281 139 l 214 0 l -8 0 l 538 1053 l 1085 0 l 850 0 m 374 333 l 688 333 l 529 656 "},"Õ":{"ha":1182,"x_min":0,"x_max":0,"o":"m 592 -18 b 56 518 294 -18 56 222 b 590 1053 56 814 294 1053 b 1126 518 888 1053 1126 814 b 592 -18 1126 222 888 -18 m 590 847 b 276 518 414 847 276 700 b 592 189 276 333 414 189 b 906 518 767 189 906 333 b 590 847 906 700 765 847 m 311 1232 b 532 1342 376 1311 443 1342 b 722 1292 608 1342 661 1292 b 806 1342 750 1292 779 1311 l 944 1242 b 746 1122 897 1179 831 1122 b 563 1179 669 1122 626 1179 b 450 1129 518 1179 493 1165 "},"Œ":{"ha":1601,"x_min":0,"x_max":0,"o":"m 906 0 l 906 92 b 592 -18 817 22 708 -18 b 56 518 294 -18 56 222 b 590 1053 56 814 294 1053 b 906 943 708 1053 817 1011 l 906 1035 l 1454 1035 l 1454 840 l 1119 840 l 1119 647 l 1510 647 l 1510 453 l 1119 453 l 1119 194 l 1547 194 l 1547 0 m 590 847 b 276 518 414 847 276 700 b 592 189 276 333 414 189 b 906 518 767 189 906 333 l 906 532 b 590 847 899 707 760 847 "},"œ":{"ha":1328,"x_min":0,"x_max":0,"o":"m 1263 131 b 954 -15 1203 42 1079 -15 b 674 103 842 -15 743 31 b 404 -15 606 31 510 -15 b 40 350 203 -15 40 150 b 404 717 40 553 203 717 b 671 601 508 717 604 671 b 938 717 738 672 832 717 b 1286 469 1111 717 1244 600 l 896 189 b 954 181 913 182 932 181 b 1104 251 1014 181 1074 201 m 404 181 b 572 350 500 181 572 250 b 404 519 572 449 500 519 b 240 350 314 519 240 449 b 404 181 240 250 314 181 m 774 342 b 776 318 774 333 775 326 l 1024 494 b 938 519 999 510 969 519 b 774 350 846 519 774 449 "},"–":{"ha":979,"x_min":0,"x_max":0,"o":"m 881 350 l 99 350 l 99 489 l 881 489 "},"—":{"ha":1500,"x_min":0,"x_max":0,"o":"m 1400 350 l 99 350 l 99 489 l 1400 489 "},"“":{"ha":592,"x_min":0,"x_max":0,"o":"m 571 1053 l 571 738 l 354 738 l 451 1053 m 326 1053 l 261 738 l 46 738 l 192 1053 "},"”":{"ha":557,"x_min":0,"x_max":0,"o":"m 40 738 l 40 1053 l 257 1053 l 160 738 m 285 738 l 349 1053 l 565 1053 l 419 738 "},"‘":{"ha":292,"x_min":0,"x_max":0,"o":"m 261 1053 l 261 738 l 46 738 l 143 1053 "},"’":{"ha":278,"x_min":0,"x_max":0,"o":"m 46 738 l 46 1053 l 261 1053 l 164 738 "},"÷":{"ha":803,"x_min":0,"x_max":0,"o":"m 738 413 l 65 413 l 65 568 l 738 568 m 411 332 b 517 228 474 332 517 288 b 411 126 517 172 476 126 b 310 228 353 126 310 172 b 411 332 310 288 353 332 m 411 854 b 517 749 474 854 517 810 b 411 650 517 696 476 650 b 310 749 353 650 310 696 b 411 854 310 810 353 854 "},"◊":{"ha":947,"x_min":0,"x_max":0,"o":"m 474 200 l 760 519 l 474 833 l 190 519 m 476 1053 l 956 519 l 476 -12 l -8 519 "},"ÿ":{"ha":797,"x_min":0,"x_max":0,"o":"m 311 882 b 224 793 311 829 275 793 b 138 882 176 793 138 828 b 224 968 138 933 176 968 b 311 882 275 968 311 933 m 674 882 b 585 793 674 829 635 793 b 500 882 539 793 500 828 b 585 968 500 933 539 968 b 674 882 635 968 674 933 m -8 701 l 208 701 l 411 267 l 610 701 l 806 701 l 324 -335 l 119 -335 l 307 67 "},"Ÿ":{"ha":1061,"x_min":0,"x_max":0,"o":"m 447 1207 b 358 1118 447 1154 410 1118 b 272 1207 311 1118 272 1153 b 358 1293 272 1258 311 1293 b 447 1207 410 1293 447 1258 m 810 1207 b 719 1118 810 1154 769 1118 b 635 1207 674 1118 635 1153 b 719 1293 635 1258 674 1293 b 810 1207 769 1293 810 1258 m 843 1035 l 1069 1035 l 646 333 l 646 0 l 431 0 l 431 314 l -8 1035 l 239 1035 l 542 526 "},"⁄":{"ha":301,"x_min":0,"x_max":0,"o":"m -154 0 l 310 1035 l 476 1035 l 19 0 "},"€":{"ha":1056,"x_min":0,"x_max":0,"o":"m 40 715 l 160 715 b 653 1053 238 914 429 1053 b 1021 876 799 1053 929 985 l 850 751 b 654 847 801 810 731 847 b 404 715 550 847 461 794 l 650 715 l 650 536 l 343 536 b 342 507 342 522 342 515 b 344 471 342 490 343 482 l 650 471 l 650 293 l 425 293 b 654 189 482 228 564 189 b 849 283 731 189 799 224 l 1021 157 b 654 -18 929 49 801 -18 b 171 293 439 -18 256 108 l 40 293 l 40 471 l 122 471 b 121 508 121 490 121 492 b 122 536 121 517 121 521 l 40 536 "},"‹":{"ha":576,"x_min":0,"x_max":0,"o":"m 449 886 l 536 758 l 246 517 l 536 275 l 449 147 l 17 517 "},"›":{"ha":576,"x_min":0,"x_max":0,"o":"m 560 517 l 128 147 l 40 275 l 332 517 l 40 758 l 128 886 "},"ﬁ":{"ha":838,"x_min":0,"x_max":0,"o":"m 469 842 b 318 718 379 842 318 786 l 318 701 l 767 701 l 767 0 l 571 0 l 571 519 l 318 519 l 318 0 l 121 0 l 121 519 l 25 519 l 25 701 l 121 701 l 121 711 b 469 1044 121 906 279 1044 m 678 825 b 564 938 617 825 564 876 b 678 1046 564 993 617 1046 b 794 938 744 1046 794 994 b 678 825 794 876 744 825 "},"ﬂ":{"ha":850,"x_min":0,"x_max":0,"o":"m 767 0 l 571 0 l 571 519 l 318 519 l 318 0 l 121 0 l 121 519 l 25 519 l 25 701 l 121 701 l 121 711 b 469 1044 121 906 279 1044 l 469 842 b 318 718 379 842 318 786 l 318 701 l 571 701 l 571 1035 l 767 1035 "},"‡":{"ha":708,"x_min":0,"x_max":0,"o":"m 263 621 l 65 621 l 65 778 l 263 778 l 263 1035 l 444 1035 l 444 778 l 643 778 l 643 621 l 444 621 l 444 514 l 643 514 l 643 356 l 444 356 l 444 0 l 263 0 l 263 356 l 65 356 l 65 514 l 263 514 "},"·":{"ha":279,"x_min":0,"x_max":0,"o":"m 139 572 b 229 482 193 572 229 533 b 139 394 229 436 193 394 b 50 482 86 394 50 436 b 139 572 50 533 86 572 "},"‚":{"ha":392,"x_min":0,"x_max":0,"o":"m 21 -226 l 115 89 l 336 89 l 144 -226 "},"„":{"ha":651,"x_min":0,"x_max":0,"o":"m 21 -226 l 114 89 l 336 89 l 144 -226 m 281 -226 l 375 89 l 596 89 l 404 -226 "},"‰":{"ha":1815,"x_min":0,"x_max":0,"o":"m 299 0 l 764 1035 l 929 1035 l 472 0 m 968 49 b 738 279 843 49 738 154 b 968 517 738 411 843 517 b 1206 279 1101 517 1206 411 b 968 49 1206 154 1101 49 m 968 369 b 889 279 925 369 889 333 b 968 194 889 233 925 194 b 1051 279 1018 194 1051 233 b 968 369 1051 333 1017 369 m 271 517 b 40 747 146 517 40 622 b 271 985 40 879 146 985 b 508 747 404 985 508 879 b 271 517 508 622 404 517 m 271 838 b 192 747 228 838 192 801 b 271 663 192 701 228 663 b 354 747 322 663 354 701 b 271 838 354 801 319 838 m 1538 49 b 1307 279 1413 49 1307 154 b 1538 517 1307 411 1413 517 b 1774 279 1671 517 1774 411 b 1538 49 1774 154 1671 49 m 1538 369 b 1457 279 1493 369 1457 333 b 1538 194 1457 233 1493 194 b 1619 279 1588 194 1619 233 b 1538 369 1619 333 1586 369 "},"Â":{"ha":1076,"x_min":0,"x_max":0,"o":"m 764 1122 l 578 1122 l 535 1182 l 490 1122 l 306 1122 l 535 1408 m 782 139 l 281 139 l 214 0 l -8 0 l 538 1053 l 1085 0 l 850 0 m 374 333 l 688 333 l 529 656 "},"Ê":{"ha":796,"x_min":0,"x_max":0,"o":"m 594 1122 l 410 1122 l 365 1182 l 322 1122 l 136 1122 l 365 1408 m 99 0 l 99 1035 l 649 1035 l 649 840 l 314 840 l 314 647 l 703 647 l 703 453 l 314 453 l 314 194 l 740 194 l 740 0 "},"Á":{"ha":1076,"x_min":0,"x_max":0,"o":"m 776 1288 l 668 1122 l 482 1122 l 647 1381 m 782 139 l 281 139 l 214 0 l -8 0 l 538 1053 l 1085 0 l 850 0 m 374 333 l 688 333 l 529 656 "},"Ë":{"ha":796,"x_min":0,"x_max":0,"o":"m 297 1207 b 210 1118 297 1154 260 1118 b 124 1207 163 1118 124 1153 b 210 1293 124 1258 163 1293 b 297 1207 260 1293 297 1258 m 660 1207 b 571 1118 660 1154 621 1118 b 486 1207 525 1118 486 1153 b 571 1293 486 1258 525 1293 b 660 1207 621 1293 660 1258 m 99 0 l 99 1035 l 649 1035 l 649 840 l 314 840 l 314 647 l 703 647 l 703 453 l 314 453 l 314 194 l 740 194 l 740 0 "},"È":{"ha":796,"x_min":0,"x_max":0,"o":"m 332 1381 l 496 1122 l 310 1122 l 201 1288 m 99 0 l 99 1035 l 649 1035 l 649 840 l 314 840 l 314 647 l 703 647 l 703 453 l 314 453 l 314 194 l 740 194 l 740 0 "},"Í":{"ha":413,"x_min":0,"x_max":0,"o":"m 422 1288 l 314 1122 l 128 1122 l 292 1381 m 314 0 l 99 0 l 99 1035 l 314 1035 "},"Î":{"ha":413,"x_min":0,"x_max":0,"o":"m 314 0 l 99 0 l 99 1035 l 314 1035 m 433 1122 l 249 1122 l 204 1182 l 161 1122 l -25 1122 l 204 1408 "},"Ï":{"ha":413,"x_min":0,"x_max":0,"o":"m 104 1207 b 17 1118 104 1154 67 1118 b -69 1207 -31 1118 -69 1153 b 17 1293 -69 1258 -31 1293 b 104 1207 67 1293 104 1258 m 467 1207 b 376 1118 467 1154 428 1118 b 292 1207 332 1118 292 1153 b 376 1293 292 1258 332 1293 b 467 1207 428 1293 467 1258 m 314 0 l 99 0 l 99 1035 l 314 1035 "},"Ì":{"ha":413,"x_min":0,"x_max":0,"o":"m 119 1381 l 285 1122 l 99 1122 l -10 1288 m 314 0 l 99 0 l 99 1035 l 314 1035 "},"Ó":{"ha":1182,"x_min":0,"x_max":0,"o":"m 592 -18 b 56 518 294 -18 56 222 b 590 1053 56 814 294 1053 b 1126 518 888 1053 1126 814 b 592 -18 1126 222 888 -18 m 590 847 b 276 518 414 847 276 700 b 592 189 276 333 414 189 b 906 518 767 189 906 333 b 590 847 906 700 765 847 m 749 1288 l 640 1122 l 454 1122 l 619 1381 "},"Ô":{"ha":1182,"x_min":0,"x_max":0,"o":"m 592 -18 b 56 518 294 -18 56 222 b 590 1053 56 814 294 1053 b 1126 518 888 1053 1126 814 b 592 -18 1126 222 888 -18 m 590 847 b 276 518 414 847 276 700 b 592 189 276 333 414 189 b 906 518 767 189 906 333 b 590 847 906 700 765 847 m 819 1122 l 633 1122 l 590 1182 l 546 1122 l 361 1122 l 590 1408 "},"Ò":{"ha":1182,"x_min":0,"x_max":0,"o":"m 592 -18 b 56 518 294 -18 56 222 b 590 1053 56 814 294 1053 b 1126 518 888 1053 1126 814 b 592 -18 1126 222 888 -18 m 590 847 b 276 518 414 847 276 700 b 592 189 276 333 414 189 b 906 518 767 189 906 333 b 590 847 906 700 765 847 m 488 1381 l 651 1122 l 467 1122 l 357 1288 "},"Ú":{"ha":1069,"x_min":0,"x_max":0,"o":"m 726 1288 l 617 1122 l 432 1122 l 596 1381 m 536 -18 b 89 479 233 -18 89 192 l 89 1035 l 304 1035 l 304 443 b 536 189 304 281 383 189 b 765 443 696 189 765 288 l 765 1035 l 981 1035 l 981 461 b 536 -18 981 160 813 -18 "},"Û":{"ha":1069,"x_min":0,"x_max":0,"o":"m 768 1122 l 583 1122 l 539 1182 l 496 1122 l 310 1122 l 539 1408 m 536 -18 b 89 479 233 -18 89 192 l 89 1035 l 304 1035 l 304 443 b 536 189 304 281 383 189 b 765 443 696 189 765 288 l 765 1035 l 981 1035 l 981 461 b 536 -18 981 160 813 -18 "},"Ù":{"ha":1069,"x_min":0,"x_max":0,"o":"m 478 1381 l 642 1122 l 457 1122 l 347 1288 m 536 -18 b 89 479 233 -18 89 192 l 89 1035 l 304 1035 l 304 443 b 536 189 304 281 383 189 b 765 443 696 189 765 288 l 765 1035 l 981 1035 l 981 461 b 536 -18 981 160 813 -18 "},"ı":{"ha":336,"x_min":0,"x_max":0,"o":"m 267 0 l 69 0 l 69 701 l 267 701 "},"ˆ":{"ha":1254,"x_min":0,"x_max":0,"o":"m 856 1122 l 671 1122 l 626 1182 l 583 1122 l 397 1122 l 626 1408 "},"˜":{"ha":1163,"x_min":0,"x_max":0,"o":"m 263 1232 b 485 1342 328 1311 394 1342 b 674 1292 560 1342 613 1292 b 757 1342 701 1292 731 1311 l 896 1242 b 697 1122 849 1179 782 1122 b 514 1179 621 1122 578 1179 b 401 1129 469 1179 444 1165 "},"¯":{"ha":1163,"x_min":0,"x_max":0,"o":"m 292 1325 l 865 1325 l 865 1139 l 292 1139 "},"˘":{"ha":1093,"x_min":0,"x_max":0,"o":"m 776 1357 b 529 1113 776 1224 668 1113 b 286 1357 396 1113 286 1224 l 429 1357 b 533 1249 429 1300 476 1249 b 635 1357 590 1249 635 1300 "},"˙":{"ha":1042,"x_min":0,"x_max":0,"o":"m 521 1203 b 643 1078 588 1203 643 1149 b 521 953 643 1010 588 953 b 397 1078 454 953 397 1010 b 521 1203 397 1149 454 1203 "},"˚":{"ha":1190,"x_min":0,"x_max":0,"o":"m 576 1115 b 425 1265 494 1115 425 1183 b 576 1422 425 1354 494 1422 b 733 1265 664 1422 733 1354 b 576 1115 733 1183 664 1115 m 576 1310 b 538 1265 556 1310 538 1292 b 576 1225 538 1244 556 1225 b 615 1265 601 1225 615 1244 b 576 1310 615 1292 601 1310 "},"¸":{"ha":1338,"x_min":0,"x_max":0,"o":"m 663 -12 l 635 -49 l 840 -49 l 840 -217 l 335 -217 l 469 -12 "},"˝":{"ha":625,"x_min":0,"x_max":0,"o":"m 32 1126 l 100 1354 l 322 1354 l 156 1126 m 292 1126 l 393 1354 l 614 1354 l 415 1126 "},"˛":{"ha":1050,"x_min":0,"x_max":0,"o":"m 517 0 b 611 -101 517 -60 556 -101 b 688 -56 643 -101 671 -83 l 803 -137 b 611 -240 758 -200 689 -240 b 371 0 474 -240 371 -135 "},"ˇ":{"ha":1254,"x_min":0,"x_max":0,"o":"m 626 1090 l 397 1376 l 583 1376 l 626 1317 l 671 1376 l 856 1376 "},"¤":{"ha":892,"x_min":0,"x_max":0,"o":"m 446 128 b 283 167 386 128 332 142 l 208 92 l 63 235 l 139 311 b 100 472 114 360 100 414 b 140 635 100 531 114 586 l 63 713 l 208 858 l 286 779 b 444 817 333 803 388 817 b 604 778 501 817 556 803 l 685 858 l 829 713 l 750 633 b 789 472 775 585 789 531 b 750 314 789 415 775 361 l 829 235 l 685 92 l 607 168 b 446 128 560 143 504 128 m 444 647 b 276 472 354 647 276 568 b 446 299 276 376 354 299 b 610 472 538 299 610 376 b 444 647 610 568 535 647 "},"¦":{"ha":347,"x_min":0,"x_max":0,"o":"m 247 -247 l 106 -247 l 106 318 l 247 318 m 247 440 l 106 440 l 106 1006 l 247 1006 "},"²":{"ha":386,"x_min":0,"x_max":0,"o":"m 3 472 l 157 721 b 28 876 81 736 28 800 b 192 1044 28 963 99 1044 b 358 876 283 1044 358 969 b 331 786 358 843 347 814 l 215 594 l 382 594 l 382 472 m 149 874 b 194 828 149 849 169 828 b 240 874 219 828 240 849 b 194 919 240 899 219 919 b 149 874 169 919 149 899 "},"³":{"ha":404,"x_min":0,"x_max":0,"o":"m 374 1035 l 271 839 b 378 668 338 806 378 743 b 181 465 378 551 290 465 b 11 558 115 465 51 503 l 118 635 b 181 594 133 608 157 594 b 243 661 213 594 243 622 b 181 726 243 701 213 726 l 79 726 l 176 915 l 49 915 l 49 1035 "},"¹":{"ha":233,"x_min":0,"x_max":0,"o":"m 208 472 l 78 472 l 78 915 l 11 915 l 11 1035 l 208 1035 "},"¼":{"ha":1190,"x_min":0,"x_max":0,"o":"m 242 0 l 707 1035 l 872 1035 l 415 0 m 322 369 l 167 369 l 167 892 l 89 892 l 89 1035 l 322 1035 m 1051 296 l 1136 296 l 1136 153 l 1051 153 l 1051 0 l 901 0 l 901 153 l 629 153 l 853 667 l 1014 667 l 854 296 l 901 296 l 901 356 l 1051 356 "},"½":{"ha":1200,"x_min":0,"x_max":0,"o":"m 242 0 l 707 1035 l 872 1035 l 415 0 m 322 369 l 167 369 l 167 892 l 89 892 l 89 1035 l 322 1035 m 689 0 l 871 294 b 717 479 786 310 717 382 b 911 678 717 582 801 678 b 1110 479 1022 678 1110 590 b 1079 371 1110 439 1099 401 l 939 143 l 1136 143 l 1136 0 m 864 478 b 915 426 864 450 888 426 b 967 478 943 426 967 450 b 915 529 967 506 943 529 b 864 478 888 529 864 506 "},"¾":{"ha":1357,"x_min":0,"x_max":0,"o":"m 353 0 l 817 1035 l 983 1035 l 526 0 m 485 1035 l 363 803 b 489 599 440 764 489 688 b 253 357 489 461 385 357 b 53 469 176 357 103 403 l 181 563 b 253 513 201 535 228 513 b 328 592 294 513 328 546 b 253 669 328 639 294 669 l 139 669 l 256 892 l 99 892 l 99 1035 m 1063 -11 b 831 222 935 -11 831 93 b 893 382 831 279 856 338 b 865 479 875 410 865 440 b 1063 678 865 590 954 678 b 1263 479 1174 678 1263 590 b 1235 382 1263 443 1253 410 b 1297 222 1274 338 1297 285 b 1063 -11 1297 93 1194 -11 m 1063 300 b 989 222 1022 300 989 267 b 1063 143 989 179 1022 143 b 1138 222 1104 143 1138 179 b 1063 300 1138 267 1104 300 m 1063 526 b 1018 479 1040 526 1018 506 b 1063 432 1018 451 1040 432 b 1108 479 1089 432 1108 451 b 1063 526 1108 506 1088 526 "},"Ð":{"ha":1115,"x_min":0,"x_max":0,"o":"m 50 601 l 99 601 l 99 1035 l 518 1035 b 1060 518 817 1035 1060 813 b 519 0 1060 221 817 0 l 99 0 l 99 406 l 50 406 m 519 194 b 839 518 699 194 839 332 b 518 840 839 706 699 840 l 314 840 l 314 601 l 529 601 l 529 406 l 314 406 l 314 194 "},"×":{"ha":704,"x_min":0,"x_max":0,"o":"m 60 308 l 242 490 l 60 672 l 171 783 l 353 601 l 535 783 l 644 672 l 463 490 l 644 308 l 535 199 l 353 381 l 171 199 "},"Ý":{"ha":1061,"x_min":0,"x_max":0,"o":"m 779 1288 l 671 1122 l 486 1122 l 650 1381 m 843 1035 l 1069 1035 l 644 333 l 644 0 l 431 0 l 431 314 l -8 1035 l 239 1035 l 540 526 "},"Þ":{"ha":932,"x_min":0,"x_max":0,"o":"m 99 0 l 99 1035 l 319 1035 l 319 936 l 458 936 b 892 535 711 936 892 736 b 443 92 892 279 703 92 l 319 92 l 319 0 m 439 286 b 671 514 588 286 671 389 b 451 742 671 625 592 742 l 319 742 l 319 286 "},"ð":{"ha":838,"x_min":0,"x_max":0,"o":"m 404 781 l 422 844 b 367 849 404 847 386 849 l 367 1011 b 464 1001 400 1011 432 1007 l 486 1078 l 601 1046 l 576 958 b 708 832 629 929 674 889 b 774 475 760 744 774 611 l 774 350 b 404 -15 774 150 606 -15 b 40 350 203 -15 40 150 b 404 717 40 553 203 717 b 619 647 485 717 557 690 l 619 653 b 535 804 619 717 586 771 l 519 751 m 404 181 b 572 350 500 181 572 250 b 404 519 572 449 500 519 b 240 350 314 519 240 449 b 404 181 240 250 314 181 "},"ý":{"ha":797,"x_min":0,"x_max":0,"o":"m 596 963 l 488 797 l 301 797 l 467 1056 m -8 701 l 208 701 l 411 267 l 610 701 l 806 701 l 324 -335 l 119 -335 l 307 67 "},"þ":{"ha":822,"x_min":0,"x_max":0,"o":"m 69 -335 l 69 1035 l 267 1035 l 267 653 b 438 717 304 690 376 717 b 782 353 639 717 782 553 b 438 -15 782 150 629 -15 b 267 50 382 -15 307 4 l 267 -335 m 418 519 b 258 351 326 519 258 450 b 418 181 258 251 326 181 b 582 351 508 181 582 251 b 418 519 582 450 508 519 "},"Ā":{"ha":1076,"x_min":0,"x_max":0,"o":"m 247 1325 l 821 1325 l 821 1139 l 247 1139 m 782 139 l 281 139 l 214 0 l -8 0 l 538 1053 l 1085 0 l 850 0 m 374 333 l 688 333 l 529 656 "},"ā":{"ha":822,"x_min":0,"x_max":0,"o":"m 129 983 l 703 983 l 703 797 l 129 797 m 753 701 l 753 0 l 556 0 l 556 50 b 385 -15 525 10 449 -15 b 40 350 193 -15 40 150 b 385 717 40 553 197 717 b 556 653 447 717 525 686 l 556 701 m 404 181 b 564 350 496 181 564 250 b 404 519 564 449 496 519 b 240 350 314 519 240 449 b 404 181 240 250 314 181 "},"Ă":{"ha":1076,"x_min":0,"x_max":0,"o":"m 776 1357 b 529 1113 776 1224 668 1113 b 286 1357 396 1113 286 1224 l 429 1357 b 533 1249 429 1300 476 1249 b 635 1357 590 1249 635 1300 m 782 139 l 281 139 l 214 0 l -8 0 l 538 1053 l 1085 0 l 850 0 m 374 333 l 688 333 l 529 656 "},"ă":{"ha":822,"x_min":0,"x_max":0,"o":"m 679 1032 b 432 788 679 899 571 788 b 189 1032 299 788 189 899 l 332 1032 b 435 924 332 975 378 924 b 538 1032 492 924 538 975 m 753 701 l 753 0 l 556 0 l 556 50 b 385 -15 525 10 449 -15 b 40 350 193 -15 40 150 b 385 717 40 553 197 717 b 556 653 447 717 525 686 l 556 701 m 404 181 b 564 350 496 181 564 250 b 404 519 564 449 496 519 b 240 350 314 519 240 449 b 404 181 240 250 314 181 "},"Ą":{"ha":1074,"x_min":0,"x_max":0,"o":"m 782 139 l 281 139 l 214 0 l -8 0 l 538 1053 l 1085 0 l 996 0 b 1090 -101 996 -60 1035 -101 b 1167 -56 1122 -101 1150 -83 l 1282 -137 b 1090 -240 1238 -200 1168 -240 b 850 0 954 -240 850 -135 m 374 333 l 688 333 l 529 656 "},"ą":{"ha":822,"x_min":0,"x_max":0,"o":"m 556 50 b 385 -15 525 10 449 -15 b 40 350 196 -15 40 150 b 386 717 40 553 197 717 b 556 653 447 717 525 686 l 556 701 l 753 701 l 753 0 l 701 0 b 796 -101 701 -60 740 -101 b 872 -56 829 -101 856 -83 l 988 -137 b 796 -240 944 -200 874 -240 b 556 0 660 -240 556 -135 m 404 181 b 564 350 496 181 564 250 b 404 519 564 449 496 519 b 240 350 314 519 240 449 b 404 181 240 250 314 181 "},"Ć":{"ha":1160,"x_min":0,"x_max":0,"o":"m 797 1288 l 689 1122 l 504 1122 l 668 1381 m 1121 457 b 588 -18 1090 192 863 -18 b 56 517 292 -18 56 221 b 586 1053 56 813 292 1053 b 1043 801 779 1053 950 953 l 875 682 b 588 847 800 793 694 847 b 276 517 414 847 276 700 b 588 189 276 335 414 189 b 903 457 743 189 874 301 "},"ć":{"ha":801,"x_min":0,"x_max":0,"o":"m 581 963 l 471 797 l 286 797 l 450 1056 m 772 308 b 404 -15 751 128 593 -15 b 40 350 203 -15 40 150 b 404 717 40 553 203 717 b 692 579 519 717 624 663 l 535 457 b 404 519 499 503 453 519 b 240 350 314 519 240 449 b 404 181 240 250 314 181 b 568 308 486 181 550 231 "},"Ċ":{"ha":1160,"x_min":0,"x_max":0,"o":"m 582 1365 b 704 1240 649 1365 704 1311 b 582 1115 704 1172 649 1115 b 458 1240 515 1115 458 1172 b 582 1365 458 1311 515 1365 m 1121 457 b 588 -18 1090 192 863 -18 b 56 517 292 -18 56 221 b 586 1053 56 813 292 1053 b 1043 801 779 1053 950 953 l 875 682 b 588 847 800 793 694 847 b 276 517 414 847 276 700 b 588 189 276 335 414 189 b 903 457 743 189 874 301 "},"ċ":{"ha":801,"x_min":0,"x_max":0,"o":"m 403 1040 b 525 915 469 1040 525 986 b 403 790 525 847 469 790 b 279 915 336 790 279 847 b 403 1040 279 986 336 1040 m 772 308 b 404 -15 751 128 593 -15 b 40 350 203 -15 40 150 b 404 717 40 553 203 717 b 692 579 519 717 624 663 l 535 457 b 404 519 499 503 453 519 b 240 350 314 519 240 449 b 404 181 240 250 314 181 b 568 308 486 181 550 231 "},"Č":{"ha":1160,"x_min":0,"x_max":0,"o":"m 585 1090 l 356 1376 l 540 1376 l 585 1317 l 629 1376 l 814 1376 m 1121 457 b 588 -18 1090 192 863 -18 b 56 517 292 -18 56 221 b 586 1053 56 813 292 1053 b 1043 801 779 1053 950 953 l 875 682 b 588 847 800 793 694 847 b 276 517 414 847 276 700 b 588 189 276 335 414 189 b 903 457 743 189 874 301 "},"č":{"ha":801,"x_min":0,"x_max":0,"o":"m 400 765 l 171 1051 l 356 1051 l 400 992 l 443 1051 l 629 1051 m 772 308 b 404 -15 751 128 593 -15 b 40 350 203 -15 40 150 b 404 717 40 553 203 717 b 692 579 519 717 624 663 l 535 457 b 404 519 499 503 453 519 b 240 350 314 519 240 449 b 404 181 240 250 314 181 b 568 308 486 181 550 231 "},"Ď":{"ha":1115,"x_min":0,"x_max":0,"o":"m 518 1035 b 1060 518 817 1035 1060 813 b 519 0 1060 221 817 0 l 99 0 l 99 1035 m 519 194 b 839 518 699 194 839 332 b 518 840 839 706 699 840 l 314 840 l 314 194 m 464 1090 l 235 1376 l 421 1376 l 464 1317 l 508 1376 l 693 1376 "},"ď":{"ha":822,"x_min":0,"x_max":0,"o":"m 301 765 l 72 1051 l 258 1051 l 301 992 l 346 1051 l 531 1051 m 753 1035 l 753 0 l 556 0 l 556 50 b 385 -15 525 10 449 -15 b 40 350 193 -15 40 150 b 385 717 40 553 197 717 b 556 653 447 717 525 686 l 556 1035 m 404 181 b 564 350 496 181 564 250 b 404 519 564 449 496 519 b 240 350 314 519 240 449 b 404 181 240 250 314 181 "},"Đ":{"ha":1115,"x_min":0,"x_max":0,"o":"m 50 601 l 99 601 l 99 1035 l 518 1035 b 1060 518 817 1035 1060 813 b 519 0 1060 221 817 0 l 99 0 l 99 406 l 50 406 m 519 194 b 839 518 699 194 839 332 b 518 840 839 706 699 840 l 314 840 l 314 601 l 529 601 l 529 406 l 314 406 l 314 194 "},"đ":{"ha":822,"x_min":0,"x_max":0,"o":"m 753 1035 l 753 950 l 831 950 l 831 767 l 753 767 l 753 0 l 556 0 l 556 50 b 385 -15 525 10 449 -15 b 40 350 193 -15 40 150 b 385 717 40 553 197 717 b 556 653 447 717 525 686 l 556 767 l 397 767 l 397 950 l 556 950 l 556 1035 m 404 181 b 564 350 496 181 564 250 b 404 519 564 449 496 519 b 240 350 314 519 240 449 b 404 181 240 250 314 181 "},"Ē":{"ha":796,"x_min":0,"x_max":0,"o":"m 83 1325 l 657 1325 l 657 1139 l 83 1139 m 99 0 l 99 1035 l 649 1035 l 649 840 l 314 840 l 314 647 l 703 647 l 703 453 l 314 453 l 314 194 l 740 194 l 740 0 "},"ē":{"ha":794,"x_min":0,"x_max":0,"o":"m 729 131 b 421 -15 669 42 546 -15 b 40 350 210 -15 40 150 b 404 717 40 553 203 717 b 754 469 578 717 711 600 l 363 189 b 421 181 381 182 400 181 b 572 251 481 181 540 201 m 81 983 l 654 983 l 654 797 l 81 797 m 240 350 b 246 304 240 333 242 318 l 501 486 b 404 519 474 507 442 519 b 240 350 314 519 240 449 "},"Ė":{"ha":796,"x_min":0,"x_max":0,"o":"m 374 1365 b 496 1240 440 1365 496 1311 b 374 1115 496 1172 440 1115 b 250 1240 307 1115 250 1172 b 374 1365 250 1311 307 1365 m 99 0 l 99 1035 l 649 1035 l 649 840 l 314 840 l 314 647 l 703 647 l 703 453 l 314 453 l 314 194 l 740 194 l 740 0 "},"ė":{"ha":794,"x_min":0,"x_max":0,"o":"m 729 131 b 421 -15 669 42 546 -15 b 40 350 210 -15 40 150 b 404 717 40 553 203 717 b 754 469 578 717 711 600 l 363 189 b 421 181 381 182 400 181 b 572 251 481 181 540 201 m 375 1040 b 497 915 442 1040 497 986 b 375 790 497 847 442 790 b 251 915 308 790 251 847 b 375 1040 251 986 308 1040 m 240 350 b 246 304 240 333 242 318 l 501 486 b 404 519 474 507 442 519 b 240 350 314 519 240 449 "},"Ę":{"ha":796,"x_min":0,"x_max":0,"o":"m 99 0 l 99 1035 l 649 1035 l 649 840 l 314 840 l 314 647 l 703 647 l 703 453 l 314 453 l 314 194 l 740 194 l 740 0 m 392 0 b 486 -101 392 -60 431 -101 b 563 -56 518 -101 546 -83 l 678 -137 b 486 -240 633 -200 564 -240 b 246 0 349 -240 246 -135 "},"ę":{"ha":794,"x_min":0,"x_max":0,"o":"m 729 131 b 463 -11 676 51 572 0 b 557 -101 468 -65 506 -101 b 633 -56 590 -101 617 -83 l 749 -137 b 557 -240 706 -200 635 -240 b 317 0 421 -240 317 -135 b 40 350 156 42 40 183 b 404 717 40 553 203 717 b 754 469 578 717 711 600 l 363 189 b 421 181 381 182 400 181 b 572 251 481 181 540 201 m 240 350 b 246 304 240 333 242 318 l 501 486 b 404 519 474 507 442 519 b 240 350 314 519 240 449 "},"Ě":{"ha":796,"x_min":0,"x_max":0,"o":"m 383 1090 l 154 1376 l 339 1376 l 383 1317 l 428 1376 l 613 1376 m 99 0 l 99 1035 l 649 1035 l 649 840 l 314 840 l 314 647 l 703 647 l 703 453 l 314 453 l 314 194 l 740 194 l 740 0 "},"ě":{"ha":794,"x_min":0,"x_max":0,"o":"m 729 131 b 421 -15 669 42 546 -15 b 40 350 210 -15 40 150 b 404 717 40 553 203 717 b 754 469 578 717 711 600 l 363 189 b 421 181 381 182 400 181 b 572 251 481 181 540 201 m 240 350 b 246 304 240 333 242 318 l 501 486 b 404 519 474 507 442 519 b 240 350 314 519 240 449 m 396 765 l 167 1051 l 353 1051 l 396 992 l 440 1051 l 625 1051 "},"Ġ":{"ha":1160,"x_min":0,"x_max":0,"o":"m 588 1365 b 710 1240 654 1365 710 1311 b 588 1115 710 1172 654 1115 b 464 1240 521 1115 464 1172 b 588 1365 464 1311 521 1365 m 1124 533 b 588 -18 1124 228 885 -18 b 56 517 292 -18 56 221 b 586 1053 56 813 292 1053 b 1043 801 779 1053 950 953 l 871 676 b 588 847 817 778 710 847 b 276 517 414 847 276 700 b 588 189 276 335 414 189 b 874 374 713 189 828 253 l 593 374 l 593 565 l 1124 565 "},"ġ":{"ha":822,"x_min":0,"x_max":0,"o":"m 394 -154 b 556 -6 485 -154 556 -89 l 556 50 b 385 -15 525 10 449 -15 b 40 350 193 -15 40 150 b 385 717 40 553 197 717 b 556 653 447 717 525 686 l 556 701 l 753 701 l 753 7 b 394 -350 753 -189 593 -350 b 96 -190 269 -350 161 -286 l 256 -75 b 394 -154 285 -124 336 -154 m 404 181 b 564 350 496 181 564 250 b 404 519 564 449 496 519 b 240 350 314 519 240 449 b 404 181 240 250 314 181 m 392 1040 b 514 915 458 1040 514 986 b 392 790 514 847 458 790 b 268 915 325 790 268 847 b 392 1040 268 986 325 1040 "},"Ģ":{"ha":1160,"x_min":0,"x_max":0,"o":"m 429 -351 l 503 -100 l 694 -100 l 542 -351 m 1124 533 b 588 -18 1124 228 885 -18 b 56 517 292 -18 56 221 b 586 1053 56 813 292 1053 b 1043 801 779 1053 950 953 l 871 676 b 588 847 817 778 710 847 b 276 517 414 847 276 700 b 588 189 276 335 414 189 b 874 374 713 189 828 253 l 593 374 l 593 565 l 1124 565 "},"ģ":{"ha":822,"x_min":0,"x_max":0,"o":"m 394 -154 b 556 -6 485 -154 556 -89 l 556 50 b 385 -15 525 10 449 -15 b 40 350 193 -15 40 150 b 385 717 40 553 197 717 b 556 653 447 717 525 686 l 556 701 l 753 701 l 753 7 b 394 -350 753 -189 593 -350 b 96 -190 269 -350 161 -286 l 256 -75 b 394 -154 285 -124 336 -154 m 404 181 b 564 350 496 181 564 250 b 404 519 564 449 496 519 b 240 350 314 519 240 449 b 404 181 240 250 314 181 m 542 1053 l 468 801 l 276 801 l 429 1053 "},"Ĩ":{"ha":413,"x_min":0,"x_max":0,"o":"m 314 0 l 99 0 l 99 1035 l 314 1035 m -99 1232 b 124 1342 -33 1311 33 1342 b 313 1292 199 1342 251 1292 b 396 1342 340 1292 369 1311 b 535 1242 490 1271 510 1258 b 336 1122 488 1179 421 1122 b 153 1179 260 1122 217 1179 b 40 1129 108 1179 83 1165 "},"ĩ":{"ha":336,"x_min":0,"x_max":0,"o":"m 267 0 l 69 0 l 69 701 l 267 701 m -110 907 b 111 1017 -46 986 21 1017 b 301 967 188 1017 239 967 b 383 1017 329 967 358 986 l 522 917 b 324 797 475 854 408 797 b 140 854 247 797 206 854 b 28 804 96 854 72 840 "},"Ī":{"ha":413,"x_min":0,"x_max":0,"o":"m 314 0 l 99 0 l 99 1035 l 314 1035 m -76 1325 l 497 1325 l 497 1139 l -76 1139 "},"ī":{"ha":340,"x_min":0,"x_max":0,"o":"m 268 0 l 71 0 l 71 701 l 268 701 m -115 983 l 458 983 l 458 797 l -115 797 "},"Į":{"ha":413,"x_min":0,"x_max":0,"o":"m 99 1035 l 314 1035 l 314 0 l 246 0 b 339 -101 246 -60 285 -101 b 415 -56 372 -101 400 -83 l 531 -137 b 339 -240 488 -200 418 -240 b 99 0 203 -240 99 -135 "},"į":{"ha":336,"x_min":0,"x_max":0,"o":"m 69 701 l 267 701 l 267 0 l 215 0 b 310 -101 215 -60 256 -101 b 386 -56 343 -101 371 -83 l 501 -137 b 310 -240 458 -200 388 -240 b 69 0 174 -240 69 -135 m 167 825 b 53 938 106 825 53 876 b 167 1046 53 993 106 1046 b 285 938 233 1046 285 994 b 167 825 285 876 233 825 "},"Ķ":{"ha":1099,"x_min":0,"x_max":0,"o":"m 314 546 l 803 1035 l 1090 1035 l 582 526 l 1107 0 l 817 0 l 429 389 l 314 274 l 314 0 l 99 0 l 99 1035 l 314 1035 m 332 -351 l 406 -100 l 597 -100 l 444 -351 "},"ķ":{"ha":817,"x_min":0,"x_max":0,"o":"m 267 194 l 267 0 l 69 0 l 69 1035 l 267 1035 l 267 422 l 565 701 l 810 701 l 457 374 l 825 0 l 574 0 l 322 247 m 193 -351 l 267 -100 l 458 -100 l 306 -351 "},"Ĺ":{"ha":751,"x_min":0,"x_max":0,"o":"m 314 1035 l 314 194 l 731 194 l 731 0 l 99 0 l 99 1035 m 411 1288 l 301 1122 l 117 1122 l 281 1381 "},"ĺ":{"ha":394,"x_min":0,"x_max":0,"o":"m 393 1288 l 285 1122 l 99 1122 l 263 1381 m 314 0 l 99 0 l 99 1035 l 314 1035 "},"Ļ":{"ha":751,"x_min":0,"x_max":0,"o":"m 314 1035 l 314 194 l 731 194 l 731 0 l 99 0 l 99 1035 m 157 -351 l 231 -100 l 422 -100 l 269 -351 "},"ļ":{"ha":336,"x_min":0,"x_max":0,"o":"m 267 1035 l 267 0 l 69 0 l 69 1035 m -4 -351 l 69 -100 l 261 -100 l 108 -351 "},"Ľ":{"ha":751,"x_min":0,"x_max":0,"o":"m 314 1035 l 314 194 l 731 194 l 731 0 l 99 0 l 99 1035 m 211 1090 l -18 1376 l 167 1376 l 211 1317 l 256 1376 l 440 1376 "},"ľ":{"ha":394,"x_min":0,"x_max":0,"o":"m 211 1090 l -18 1376 l 167 1376 l 211 1317 l 254 1376 l 440 1376 m 314 0 l 99 0 l 99 1035 l 314 1035 "},"Ł":{"ha":775,"x_min":0,"x_max":0,"o":"m 326 1035 l 326 632 l 478 718 l 478 526 l 326 440 l 326 194 l 744 194 l 744 0 l 113 0 l 113 318 l 7 258 l 7 450 l 113 510 l 113 1035 "},"ł":{"ha":450,"x_min":0,"x_max":0,"o":"m 318 628 l 478 718 l 478 526 l 318 436 l 318 0 l 104 0 l 104 314 l 7 258 l 7 450 l 104 506 l 104 1035 l 318 1035 "},"Ń":{"ha":1149,"x_min":0,"x_max":0,"o":"m 835 1035 l 1050 1035 l 1050 -18 l 314 594 l 314 0 l 99 0 l 99 1054 l 835 436 m 775 1288 l 667 1122 l 481 1122 l 644 1381 "},"ń":{"ha":836,"x_min":0,"x_max":0,"o":"m 581 963 l 471 797 l 286 797 l 450 1056 m 776 0 l 581 0 l 581 350 b 435 519 581 463 515 519 b 267 350 347 519 267 463 l 267 0 l 69 0 l 69 701 l 267 701 l 267 653 b 451 717 306 697 388 717 b 776 350 643 717 776 553 "},"Ņ":{"ha":1149,"x_min":0,"x_max":0,"o":"m 835 1035 l 1050 1035 l 1050 -18 l 314 594 l 314 0 l 99 0 l 99 1054 l 835 436 m 346 -351 l 419 -100 l 611 -100 l 458 -351 "},"ņ":{"ha":836,"x_min":0,"x_max":0,"o":"m 776 0 l 581 0 l 581 350 b 435 519 581 463 515 519 b 267 350 347 519 267 463 l 267 0 l 69 0 l 69 701 l 267 701 l 267 653 b 451 717 306 697 388 717 b 776 350 643 717 776 553 m 235 -351 l 308 -100 l 500 -100 l 347 -351 "},"Ň":{"ha":1149,"x_min":0,"x_max":0,"o":"m 835 1035 l 1050 1035 l 1050 -18 l 314 594 l 314 0 l 99 0 l 99 1054 l 835 436 m 563 1090 l 333 1376 l 518 1376 l 563 1317 l 606 1376 l 792 1376 "},"ň":{"ha":836,"x_min":0,"x_max":0,"o":"m 400 765 l 171 1051 l 356 1051 l 400 992 l 443 1051 l 629 1051 m 776 0 l 581 0 l 581 350 b 435 519 581 463 515 519 b 267 350 347 519 267 463 l 267 0 l 69 0 l 69 701 l 267 701 l 267 653 b 451 717 306 697 388 717 b 776 350 643 717 776 553 "},"Ō":{"ha":1182,"x_min":0,"x_max":0,"o":"m 592 -18 b 56 518 294 -18 56 222 b 590 1053 56 814 294 1053 b 1126 518 888 1053 1126 814 b 592 -18 1126 222 888 -18 m 590 847 b 276 518 414 847 276 700 b 592 189 276 333 414 189 b 906 518 767 189 906 333 b 590 847 906 700 765 847 m 299 1325 l 872 1325 l 872 1139 l 299 1139 "},"ō":{"ha":814,"x_min":0,"x_max":0,"o":"m 404 717 b 774 350 606 717 774 553 b 404 -15 774 150 606 -15 b 40 350 203 -15 40 150 b 404 717 40 553 203 717 m 404 181 b 572 350 500 181 572 250 b 404 519 572 449 500 519 b 240 350 314 519 240 449 b 404 181 240 250 314 181 m 117 983 l 690 983 l 690 797 l 117 797 "},"Ő":{"ha":1182,"x_min":0,"x_max":0,"o":"m 592 -18 b 56 518 294 -18 56 222 b 590 1053 56 814 294 1053 b 1126 518 888 1053 1126 814 b 592 -18 1126 222 888 -18 m 590 847 b 276 518 414 847 276 700 b 592 189 276 333 414 189 b 906 518 767 189 906 333 b 590 847 906 700 765 847 m 381 1126 l 449 1354 l 669 1354 l 504 1126 m 640 1126 l 740 1354 l 961 1354 l 764 1126 "},"ő":{"ha":814,"x_min":0,"x_max":0,"o":"m 404 717 b 774 350 606 717 774 553 b 404 -15 774 150 606 -15 b 40 350 203 -15 40 150 b 404 717 40 553 203 717 m 404 181 b 572 350 500 181 572 250 b 404 519 572 449 500 519 b 240 350 314 519 240 449 b 404 181 240 250 314 181 m 192 801 l 260 1029 l 481 1029 l 315 801 m 451 801 l 553 1029 l 774 1029 l 575 801 "},"Ŕ":{"ha":938,"x_min":0,"x_max":0,"o":"m 613 1288 l 504 1122 l 318 1122 l 482 1381 m 314 179 l 314 0 l 99 0 l 99 1035 l 458 1035 b 888 628 701 1035 888 853 b 654 239 888 442 799 306 l 878 0 l 592 0 l 422 179 m 432 374 b 671 611 585 374 671 467 b 444 840 671 738 594 840 l 314 840 l 314 374 "},"ŕ":{"ha":489,"x_min":0,"x_max":0,"o":"m 450 963 l 342 797 l 156 797 l 319 1056 m 471 510 b 408 519 451 517 431 519 b 267 350 332 519 267 463 l 267 0 l 69 0 l 69 701 l 267 701 l 267 653 b 422 717 310 699 368 717 b 471 714 439 717 453 717 "},"Ŗ":{"ha":938,"x_min":0,"x_max":0,"o":"m 263 -351 l 336 -100 l 528 -100 l 375 -351 m 314 179 l 314 0 l 99 0 l 99 1035 l 458 1035 b 888 628 701 1035 888 853 b 654 239 888 442 799 306 l 878 0 l 592 0 l 422 179 m 432 374 b 671 611 585 374 671 467 b 444 840 671 738 594 840 l 314 840 l 314 374 "},"ŗ":{"ha":489,"x_min":0,"x_max":0,"o":"m -4 -351 l 69 -100 l 261 -100 l 108 -351 m 471 510 b 408 519 451 517 431 519 b 267 350 332 519 267 463 l 267 0 l 69 0 l 69 701 l 267 701 l 267 653 b 422 717 310 699 368 717 b 471 714 439 717 453 717 "},"Ř":{"ha":938,"x_min":0,"x_max":0,"o":"m 422 1090 l 193 1376 l 378 1376 l 422 1317 l 467 1376 l 651 1376 m 314 179 l 314 0 l 99 0 l 99 1035 l 458 1035 b 888 628 701 1035 888 853 b 654 239 888 442 799 306 l 878 0 l 592 0 l 422 179 m 432 374 b 671 611 585 374 671 467 b 444 840 671 738 594 840 l 314 840 l 314 374 "},"ř":{"ha":489,"x_min":0,"x_max":0,"o":"m 268 765 l 39 1051 l 224 1051 l 268 992 l 311 1051 l 497 1051 m 471 510 b 408 519 451 517 431 519 b 267 350 332 519 267 463 l 267 0 l 69 0 l 69 701 l 267 701 l 267 653 b 422 717 310 699 368 717 b 471 714 439 717 453 717 "},"Ś":{"ha":772,"x_min":0,"x_max":0,"o":"m 564 1288 l 456 1122 l 269 1122 l 433 1381 m 347 458 b 51 754 168 479 51 592 b 356 1053 51 929 213 1053 b 635 919 458 1053 556 1014 l 465 796 b 356 847 438 825 392 847 b 260 756 299 847 260 813 b 404 658 260 708 294 665 b 726 328 581 647 726 528 b 376 -18 726 126 558 -18 b 42 133 258 -18 140 25 l 219 264 b 376 189 267 204 315 189 b 503 313 447 189 503 246 b 347 458 503 396 447 447 "},"ś":{"ha":558,"x_min":0,"x_max":0,"o":"m 435 963 l 326 797 l 142 797 l 306 1056 m 250 282 b 32 504 122 300 32 385 b 263 717 32 626 158 717 b 472 607 353 717 422 679 l 331 504 b 267 533 313 521 293 533 b 225 497 240 533 225 518 b 300 453 225 474 242 460 b 528 225 429 436 528 369 b 258 -15 528 82 410 -15 b 17 90 154 -15 78 21 l 183 211 b 260 181 204 189 229 181 b 313 228 296 181 313 201 b 250 282 313 256 294 275 "},"Ş":{"ha":772,"x_min":0,"x_max":0,"o":"m 264 -4 b 42 133 185 15 108 58 l 219 264 b 376 189 267 204 315 189 b 503 313 447 189 503 246 b 347 458 503 396 447 447 b 51 754 168 479 51 592 b 356 1053 51 929 213 1053 b 635 919 458 1053 556 1014 l 465 796 b 356 847 438 825 392 847 b 260 756 299 847 260 813 b 404 658 260 708 294 665 b 726 328 581 647 726 528 b 453 -8 726 156 603 25 l 425 -49 l 629 -49 l 629 -217 l 124 -217 "},"ş":{"ha":558,"x_min":0,"x_max":0,"o":"m 250 282 b 32 504 122 300 32 385 b 263 717 32 626 158 717 b 472 607 353 717 422 679 l 331 504 b 267 533 313 521 293 533 b 225 497 240 533 225 518 b 300 453 225 474 242 460 b 528 225 429 436 528 369 b 310 -11 528 99 435 7 l 296 -49 l 500 -49 l 500 -217 l 50 -217 l 140 3 b 17 90 93 21 51 50 l 183 211 b 260 181 204 189 229 181 b 313 228 296 181 313 201 b 250 282 313 256 294 275 "},"Š":{"ha":772,"x_min":0,"x_max":0,"o":"m 364 1090 l 135 1376 l 319 1376 l 364 1317 l 408 1376 l 593 1376 m 347 458 b 51 754 168 479 51 592 b 356 1053 51 929 213 1053 b 635 919 458 1053 556 1014 l 465 796 b 356 847 438 825 392 847 b 260 756 299 847 260 813 b 404 658 260 708 294 665 b 726 328 581 647 726 528 b 376 -18 726 126 558 -18 b 42 133 258 -18 140 25 l 219 264 b 376 189 267 204 315 189 b 503 313 447 189 503 246 b 347 458 503 396 447 447 "},"š":{"ha":558,"x_min":0,"x_max":0,"o":"m 247 765 l 18 1051 l 203 1051 l 247 992 l 290 1051 l 476 1051 m 250 282 b 32 504 122 300 32 385 b 263 717 32 626 158 717 b 472 607 353 717 422 679 l 331 504 b 267 533 313 521 293 533 b 225 497 240 533 225 518 b 300 453 225 474 242 460 b 528 225 429 436 528 369 b 258 -15 528 82 410 -15 b 17 90 154 -15 78 21 l 183 211 b 260 181 204 189 229 181 b 313 228 296 181 313 201 b 250 282 313 256 294 275 "},"Ť":{"ha":796,"x_min":0,"x_max":0,"o":"m 282 0 l 282 833 l 26 833 l 26 1035 l 769 1035 l 769 833 l 497 833 l 497 0 m 390 1090 l 161 1376 l 346 1376 l 390 1317 l 433 1376 l 619 1376 "},"ť":{"ha":497,"x_min":0,"x_max":0,"o":"m 314 519 l 314 296 b 476 174 314 213 386 174 l 476 -15 b 117 290 267 -15 117 108 l 117 519 l 11 519 l 11 701 l 117 701 l 117 793 l 314 936 l 314 701 l 481 701 l 481 519 m 228 960 l -1 1246 l 183 1246 l 228 1186 l 271 1246 l 457 1246 "},"Ũ":{"ha":1069,"x_min":0,"x_max":0,"o":"m 249 1232 b 471 1342 314 1311 381 1342 b 660 1292 546 1342 599 1292 b 743 1342 688 1292 717 1311 l 882 1242 b 683 1122 835 1179 768 1122 b 500 1179 607 1122 564 1179 b 388 1129 456 1179 431 1165 m 536 -18 b 89 479 233 -18 89 192 l 89 1035 l 304 1035 l 304 443 b 536 189 304 281 383 189 b 765 443 696 189 765 288 l 765 1035 l 981 1035 l 981 461 b 536 -18 981 160 813 -18 "},"ũ":{"ha":836,"x_min":0,"x_max":0,"o":"m 60 701 l 257 701 l 257 353 b 401 181 257 251 322 181 b 571 353 489 181 571 224 l 571 701 l 767 701 l 767 0 l 571 0 l 571 50 b 375 -15 531 6 442 -15 b 60 336 190 -15 60 143 m 99 907 b 319 1017 163 986 229 1017 b 510 967 396 1017 447 967 b 592 1017 538 967 567 986 l 731 917 b 532 797 683 854 617 797 b 349 854 456 797 414 854 b 236 804 304 854 281 840 "},"Ū":{"ha":1069,"x_min":0,"x_max":0,"o":"m 243 1325 l 817 1325 l 817 1139 l 243 1139 m 536 -18 b 89 479 233 -18 89 192 l 89 1035 l 304 1035 l 304 443 b 536 189 304 281 383 189 b 765 443 696 189 765 288 l 765 1035 l 981 1035 l 981 461 b 536 -18 981 160 813 -18 "},"ū":{"ha":836,"x_min":0,"x_max":0,"o":"m 114 983 l 688 983 l 688 797 l 114 797 m 60 701 l 257 701 l 257 353 b 401 181 257 251 322 181 b 571 353 489 181 571 224 l 571 701 l 767 701 l 767 0 l 571 0 l 571 50 b 375 -15 531 6 442 -15 b 60 336 190 -15 60 143 "},"Ů":{"ha":1069,"x_min":0,"x_max":0,"o":"m 531 1115 b 381 1265 449 1115 381 1183 b 531 1422 381 1354 449 1422 b 688 1265 619 1422 688 1354 b 531 1115 688 1183 619 1115 m 531 1310 b 492 1265 510 1310 492 1292 b 531 1225 492 1244 510 1225 b 571 1265 556 1225 571 1244 b 531 1310 571 1292 556 1310 m 536 -18 b 89 479 233 -18 89 192 l 89 1035 l 304 1035 l 304 443 b 536 189 304 281 383 189 b 765 443 696 189 765 288 l 765 1035 l 981 1035 l 981 461 b 536 -18 981 160 813 -18 "},"ů":{"ha":836,"x_min":0,"x_max":0,"o":"m 403 790 b 251 940 319 790 251 858 b 403 1097 251 1029 319 1097 b 558 940 490 1097 558 1029 b 403 790 558 858 490 790 m 403 985 b 364 940 382 985 364 967 b 403 900 364 919 382 900 b 442 940 428 900 442 919 b 403 985 442 967 428 985 m 60 701 l 257 701 l 257 353 b 401 181 257 251 322 181 b 571 353 489 181 571 224 l 571 701 l 767 701 l 767 0 l 571 0 l 571 50 b 375 -15 531 6 442 -15 b 60 336 190 -15 60 143 "},"Ű":{"ha":1069,"x_min":0,"x_max":0,"o":"m 325 1126 l 393 1354 l 614 1354 l 449 1126 m 585 1126 l 686 1354 l 907 1354 l 708 1126 m 536 -18 b 89 479 233 -18 89 192 l 89 1035 l 304 1035 l 304 443 b 536 189 304 281 383 189 b 765 443 696 189 765 288 l 765 1035 l 981 1035 l 981 461 b 536 -18 981 160 813 -18 "},"ű":{"ha":836,"x_min":0,"x_max":0,"o":"m 194 797 l 263 1025 l 485 1025 l 318 797 m 454 797 l 556 1025 l 776 1025 l 578 797 m 60 701 l 257 701 l 257 353 b 401 181 257 251 322 181 b 571 353 489 181 571 224 l 571 701 l 767 701 l 767 0 l 571 0 l 571 50 b 375 -15 531 6 442 -15 b 60 336 190 -15 60 143 "},"Ų":{"ha":1069,"x_min":0,"x_max":0,"o":"m 981 461 b 606 -12 979 185 839 15 b 700 -101 613 -65 649 -101 b 776 -56 733 -101 760 -83 l 892 -137 b 700 -240 849 -200 778 -240 b 460 -12 567 -240 467 -142 b 89 479 210 19 89 217 l 89 1035 l 304 1035 l 304 443 b 536 189 304 281 383 189 b 765 443 696 189 765 288 l 765 1035 l 981 1035 l 981 481 "},"ų":{"ha":836,"x_min":0,"x_max":0,"o":"m 571 50 b 375 -15 531 6 442 -15 b 60 336 190 -15 60 143 l 60 701 l 257 701 l 257 353 b 401 181 257 251 322 181 b 571 353 489 181 571 224 l 571 701 l 767 701 l 767 0 l 717 0 b 811 -101 717 -60 756 -101 b 888 -56 843 -101 871 -83 l 1003 -137 b 811 -240 958 -200 889 -240 b 571 0 674 -240 571 -135 "},"Ŵ":{"ha":1501,"x_min":0,"x_max":0,"o":"m 1286 1035 l 1510 1035 l 983 -18 l 757 408 l 544 -18 l -8 1035 l 239 1035 l 553 428 l 650 615 l 431 1035 l 678 1035 l 992 428 m 981 1122 l 796 1122 l 751 1182 l 708 1122 l 522 1122 l 751 1408 "},"ŵ":{"ha":1029,"x_min":0,"x_max":0,"o":"m 844 701 l 1038 701 l 689 -18 l 531 313 l 372 -18 l -8 701 l 210 701 l 378 364 l 442 500 l 347 701 l 536 701 l 697 365 m 756 797 l 571 797 l 526 857 l 483 797 l 297 797 l 526 1083 "},"Ŷ":{"ha":1061,"x_min":0,"x_max":0,"o":"m 843 1035 l 1069 1035 l 644 333 l 644 0 l 431 0 l 431 314 l -8 1035 l 239 1035 l 540 526 m 772 1122 l 588 1122 l 543 1182 l 500 1122 l 314 1122 l 543 1408 "},"ŷ":{"ha":797,"x_min":0,"x_max":0,"o":"m -8 701 l 208 701 l 411 267 l 610 701 l 806 701 l 324 -335 l 119 -335 l 307 67 m 642 797 l 457 797 l 413 857 l 369 797 l 183 797 l 413 1083 "},"Ź":{"ha":947,"x_min":0,"x_max":0,"o":"m 926 194 l 926 0 l 7 0 l 543 840 l 60 840 l 60 1035 l 908 1035 l 365 194 m 733 1288 l 624 1122 l 439 1122 l 603 1381 "},"ź":{"ha":651,"x_min":0,"x_max":0,"o":"m 11 0 l 324 519 l 53 519 l 53 701 l 631 701 l 339 188 l 626 188 l 626 0 m 581 963 l 471 797 l 286 797 l 450 1056 "},"Ż":{"ha":947,"x_min":0,"x_max":0,"o":"m 926 194 l 926 0 l 7 0 l 543 840 l 60 840 l 60 1035 l 908 1035 l 365 194 m 453 1365 b 575 1240 519 1365 575 1311 b 453 1115 575 1172 519 1115 b 329 1240 386 1115 329 1172 b 453 1365 329 1311 386 1365 "},"ż":{"ha":651,"x_min":0,"x_max":0,"o":"m 11 0 l 324 522 l 53 522 l 53 701 l 631 701 l 339 188 l 626 188 l 626 0 m 358 1040 b 481 915 425 1040 481 986 b 358 790 481 847 425 790 b 235 915 292 790 235 847 b 358 1040 235 986 292 1040 "},"Ž":{"ha":947,"x_min":0,"x_max":0,"o":"m 926 194 l 926 0 l 7 0 l 543 840 l 60 840 l 60 1035 l 908 1035 l 365 194 m 478 1090 l 249 1376 l 433 1376 l 478 1317 l 521 1376 l 707 1376 "},"ž":{"ha":651,"x_min":0,"x_max":0,"o":"m 11 0 l 324 522 l 53 522 l 53 701 l 631 701 l 339 188 l 626 188 l 626 0 m 357 765 l 128 1051 l 314 1051 l 357 992 l 401 1051 l 586 1051 "},"Ș":{"ha":758,"x_min":0,"x_max":0,"o":"m 207 -351 l 281 -100 l 472 -100 l 319 -351 m 333 458 b 38 754 154 479 38 592 b 342 1053 38 929 199 1053 b 621 919 444 1053 542 1014 l 451 796 b 342 847 424 825 378 847 b 246 756 285 847 246 813 b 390 658 246 708 281 665 b 713 328 567 647 713 528 b 363 -18 713 126 544 -18 b 28 133 244 -18 126 25 l 206 264 b 363 189 253 204 301 189 b 489 313 433 189 489 246 b 333 458 489 396 433 447 "},"ș":{"ha":558,"x_min":0,"x_max":0,"o":"m 250 282 b 32 504 122 300 32 385 b 263 717 32 626 158 717 b 472 607 353 717 422 679 l 331 504 b 267 533 313 521 293 533 b 225 497 240 533 225 518 b 300 453 225 474 242 460 b 528 225 429 436 528 369 b 258 -15 528 82 410 -15 b 17 90 154 -15 78 21 l 183 211 b 260 181 204 189 229 181 b 313 228 296 181 313 201 b 250 282 313 256 294 275 m 110 -351 l 183 -100 l 375 -100 l 222 -351 "},"Ț":{"ha":796,"x_min":0,"x_max":0,"o":"m 282 0 l 282 840 l 26 840 l 26 1035 l 769 1035 l 769 840 l 497 840 l 497 0 m 208 -351 l 282 -100 l 474 -100 l 321 -351 "},"ț":{"ha":501,"x_min":0,"x_max":0,"o":"m 314 519 l 314 296 b 476 181 314 217 386 181 l 476 -15 b 117 290 267 -15 117 108 l 117 519 l 11 519 l 11 701 l 117 701 l 117 793 l 314 936 l 314 701 l 481 701 l 481 519 m 186 -351 l 260 -100 l 451 -100 l 299 -351 "},"Ḃ":{"ha":882,"x_min":0,"x_max":0,"o":"m 99 0 l 99 1035 l 431 1035 b 760 761 622 1035 760 954 b 686 586 760 689 736 632 b 826 333 779 522 826 433 b 460 0 826 122 650 0 m 467 194 b 606 326 556 194 606 246 b 467 461 606 410 556 461 l 314 461 l 314 194 m 422 649 b 539 744 526 649 539 701 b 422 840 539 824 482 840 l 314 840 l 314 649 m 374 1365 b 496 1240 440 1365 496 1311 b 374 1115 496 1172 440 1115 b 250 1240 307 1115 250 1172 b 374 1365 250 1311 307 1365 "},"ḃ":{"ha":822,"x_min":0,"x_max":0,"o":"m 267 1035 l 267 653 b 438 717 297 686 375 717 b 782 350 625 717 782 553 b 438 -15 782 150 629 -15 b 267 50 374 -15 297 10 l 267 0 l 69 0 l 69 1035 m 418 181 b 582 350 508 181 582 250 b 418 519 582 449 508 519 b 258 350 326 519 258 449 b 418 181 258 250 326 181 m 458 1040 b 581 915 525 1040 581 986 b 458 790 581 847 525 790 b 335 915 392 790 335 847 b 458 1040 335 986 392 1040 "},"Ḋ":{"ha":1115,"x_min":0,"x_max":0,"o":"m 518 1035 b 1060 518 817 1035 1060 813 b 519 0 1060 221 817 0 l 99 0 l 99 1035 m 519 194 b 839 518 699 194 839 332 b 518 840 839 706 699 840 l 314 840 l 314 194 m 471 1365 b 593 1240 538 1365 593 1311 b 471 1115 593 1172 538 1115 b 347 1240 404 1115 347 1172 b 471 1365 347 1311 404 1365 "},"ḋ":{"ha":822,"x_min":0,"x_max":0,"o":"m 753 1035 l 753 0 l 556 0 l 556 50 b 385 -15 525 10 449 -15 b 40 350 193 -15 40 150 b 385 717 40 553 197 717 b 556 653 447 717 525 686 l 556 1035 m 404 181 b 564 350 496 181 564 250 b 404 519 564 449 496 519 b 240 350 314 519 240 449 b 404 181 240 250 314 181 m 361 1040 b 483 915 428 1040 483 986 b 361 790 483 847 428 790 b 238 915 294 790 238 847 b 361 1040 238 986 294 1040 "},"Ḟ":{"ha":744,"x_min":0,"x_max":0,"o":"m 99 0 l 99 1035 l 649 1035 l 649 840 l 314 840 l 314 647 l 703 647 l 703 453 l 314 453 l 314 0 m 360 1365 b 482 1240 426 1365 482 1311 b 360 1115 482 1172 426 1115 b 236 1240 293 1115 236 1172 b 360 1365 236 1311 293 1365 "},"ḟ":{"ha":494,"x_min":0,"x_max":0,"o":"m 475 842 b 324 718 383 842 324 786 l 324 701 l 461 701 l 461 519 l 324 519 l 324 0 l 126 0 l 126 519 l 31 519 l 31 701 l 126 701 l 126 711 b 475 1044 126 906 285 1044 m 318 1365 b 440 1240 385 1365 440 1311 b 318 1115 440 1172 385 1115 b 194 1240 251 1115 194 1172 b 318 1365 194 1311 251 1365 "},"Ṁ":{"ha":1300,"x_min":0,"x_max":0,"o":"m 643 1365 b 765 1240 710 1365 765 1311 b 643 1115 765 1172 710 1115 b 519 1240 576 1115 519 1172 b 643 1365 519 1311 576 1365 m 1201 1053 l 1201 0 l 986 0 l 986 624 l 650 381 l 314 624 l 314 0 l 99 0 l 99 1053 l 650 635 "},"ṁ":{"ha":1306,"x_min":0,"x_max":0,"o":"m 669 1040 b 792 915 736 1040 792 986 b 669 790 792 847 736 790 b 546 915 603 790 546 847 b 669 1040 546 986 603 1040 m 754 0 l 557 0 l 557 350 b 406 519 557 471 494 519 b 267 350 332 519 267 443 l 267 0 l 69 0 l 69 701 l 267 701 l 267 653 b 439 717 299 692 378 717 b 676 606 542 717 635 669 b 926 717 743 694 854 717 b 1246 350 1142 717 1246 553 l 1246 0 l 1050 0 l 1050 350 b 906 519 1050 457 985 519 b 754 350 819 519 754 443 "},"Ṗ":{"ha":926,"x_min":0,"x_max":0,"o":"m 365 1365 b 488 1240 432 1365 488 1311 b 365 1115 488 1172 432 1115 b 242 1240 299 1115 242 1172 b 365 1365 242 1311 299 1365 m 99 0 l 99 1035 l 458 1035 b 888 628 701 1035 888 853 b 438 179 888 363 711 179 l 314 179 l 314 0 m 432 374 b 671 611 585 374 671 467 b 444 840 671 738 594 840 l 314 840 l 314 374 "},"ṗ":{"ha":822,"x_min":0,"x_max":0,"o":"m 69 -335 l 69 701 l 267 701 l 267 653 b 438 717 297 686 374 717 b 782 353 631 717 782 553 b 433 -15 782 150 625 -15 b 267 50 375 -15 304 6 l 267 -335 m 418 519 b 258 351 326 519 258 450 b 418 181 258 251 326 181 b 582 351 508 181 582 251 b 418 519 582 450 508 519 m 406 1040 b 528 915 472 1040 528 986 b 406 790 528 847 472 790 b 282 915 339 790 282 847 b 406 1040 282 986 339 1040 "},"Ṡ":{"ha":758,"x_min":0,"x_max":0,"o":"m 333 458 b 25 754 147 479 25 592 b 342 1053 25 929 193 1053 b 621 919 444 1053 542 1014 l 451 796 b 342 847 424 825 378 847 b 246 756 285 847 246 813 b 390 658 246 708 281 665 b 713 328 567 647 713 528 b 363 -18 713 126 544 -18 b 28 133 244 -18 126 25 l 206 264 b 363 189 253 204 301 189 b 493 313 436 189 493 246 b 333 458 493 396 436 447 m 338 1365 b 460 1240 404 1365 460 1311 b 338 1115 460 1172 404 1115 b 214 1240 271 1115 214 1172 b 338 1365 214 1311 271 1365 "},"ṡ":{"ha":558,"x_min":0,"x_max":0,"o":"m 250 282 b 32 504 122 300 32 385 b 263 717 32 626 158 717 b 472 607 353 717 422 679 l 331 504 b 267 533 313 521 293 533 b 225 497 240 533 225 518 b 300 453 225 474 242 460 b 528 225 429 436 528 369 b 258 -15 528 82 410 -15 b 17 90 154 -15 78 21 l 183 211 b 260 181 204 189 229 181 b 313 228 296 181 313 201 b 250 282 313 256 294 275 m 257 1040 b 379 915 324 1040 379 986 b 257 790 379 847 324 790 b 133 915 190 790 133 847 b 257 1040 133 986 190 1040 "},"Ṫ":{"ha":796,"x_min":0,"x_max":0,"o":"m 282 0 l 282 840 l 26 840 l 26 1035 l 769 1035 l 769 840 l 497 840 l 497 0 m 397 1365 b 519 1240 464 1365 519 1311 b 397 1115 519 1172 464 1115 b 274 1240 331 1115 274 1172 b 397 1365 274 1311 331 1365 "},"ṫ":{"ha":501,"x_min":0,"x_max":0,"o":"m 314 519 l 314 296 b 476 181 314 217 386 181 l 476 -15 b 117 290 267 -15 117 108 l 117 519 l 11 519 l 11 701 l 117 701 l 117 793 l 314 936 l 314 701 l 481 701 l 481 519 m 225 1217 b 347 1092 292 1217 347 1163 b 225 967 347 1024 292 967 b 101 1092 158 967 101 1024 b 225 1217 101 1163 158 1217 "},"Ẁ":{"ha":1501,"x_min":0,"x_max":0,"o":"m 1286 1035 l 1510 1035 l 983 -18 l 757 408 l 544 -18 l -8 1035 l 239 1035 l 553 428 l 650 615 l 431 1035 l 678 1035 l 992 428 m 481 1381 l 646 1122 l 460 1122 l 351 1288 "},"ẁ":{"ha":1029,"x_min":0,"x_max":0,"o":"m 844 701 l 1038 701 l 689 -18 l 531 313 l 372 -18 l -8 701 l 210 701 l 378 364 l 442 500 l 347 701 l 536 701 l 697 365 m 335 1056 l 499 797 l 313 797 l 204 963 "},"Ẃ":{"ha":1501,"x_min":0,"x_max":0,"o":"m 1286 1035 l 1510 1035 l 983 -18 l 757 408 l 544 -18 l -8 1035 l 239 1035 l 553 428 l 650 615 l 431 1035 l 678 1035 l 992 428 m 794 1288 l 686 1122 l 500 1122 l 664 1381 "},"ẃ":{"ha":1029,"x_min":0,"x_max":0,"o":"m 844 701 l 1038 701 l 689 -18 l 531 313 l 372 -18 l -8 701 l 210 701 l 378 364 l 442 500 l 347 701 l 536 701 l 697 365 m 636 963 l 528 797 l 342 797 l 506 1056 "},"Ẅ":{"ha":1501,"x_min":0,"x_max":0,"o":"m 1286 1035 l 1510 1035 l 983 -18 l 757 408 l 544 -18 l -8 1035 l 239 1035 l 553 428 l 650 615 l 431 1035 l 678 1035 l 992 428 m 644 1207 b 557 1118 644 1154 607 1118 b 471 1207 510 1118 471 1153 b 557 1293 471 1258 510 1293 b 644 1207 607 1293 644 1258 m 1007 1207 b 918 1118 1007 1154 968 1118 b 833 1207 872 1118 833 1153 b 918 1293 833 1258 872 1293 b 1007 1207 968 1293 1007 1258 "},"ẅ":{"ha":1029,"x_min":0,"x_max":0,"o":"m 844 701 l 1038 701 l 689 -18 l 531 313 l 372 -18 l -8 701 l 210 701 l 378 364 l 442 500 l 347 701 l 536 701 l 697 365 m 425 882 b 338 793 425 829 388 793 b 251 882 290 793 251 828 b 338 968 251 933 290 968 b 425 882 388 968 425 933 m 788 882 b 699 793 788 829 749 793 b 614 882 653 793 614 828 b 699 968 614 933 653 968 b 788 882 749 968 788 933 "},"Ỳ":{"ha":1061,"x_min":0,"x_max":0,"o":"m 843 1035 l 1069 1035 l 646 333 l 646 0 l 431 0 l 431 314 l -8 1035 l 239 1035 l 542 526 m 469 1381 l 635 1122 l 449 1122 l 340 1288 "},"ỳ":{"ha":797,"x_min":0,"x_max":0,"o":"m -8 701 l 208 701 l 411 267 l 610 701 l 806 701 l 324 -335 l 119 -335 l 307 67 m 347 1056 l 511 797 l 325 797 l 217 963 "},"⁰":{"ha":622,"x_min":0,"x_max":0,"o":"m 311 465 b 21 754 149 465 21 596 b 310 1044 21 917 149 1044 b 601 754 472 1044 601 917 b 311 465 601 596 472 465 m 310 919 b 156 754 225 919 156 844 b 311 592 156 665 225 592 b 467 754 397 592 467 665 b 310 919 467 844 396 919 "},"⁴":{"ha":425,"x_min":0,"x_max":0,"o":"m 354 724 l 424 724 l 424 601 l 354 601 l 354 472 l 225 472 l 225 601 l -3 601 l 183 1035 l 324 1035 l 186 724 l 225 724 l 225 775 l 354 775 "},"⁵":{"ha":411,"x_min":0,"x_max":0,"o":"m 328 1035 l 328 915 l 185 915 l 185 857 l 192 857 b 390 669 310 857 390 783 b 183 465 390 551 300 465 b 17 556 119 465 58 500 l 122 635 b 183 594 135 613 161 594 b 256 661 224 594 256 618 b 192 726 256 704 225 726 l 63 726 l 63 1035 "},"⁶":{"ha":432,"x_min":0,"x_max":0,"o":"m 346 1035 l 243 854 b 411 661 343 843 411 763 b 213 465 411 551 325 465 b 17 661 104 465 17 551 b 47 765 17 694 29 735 l 201 1035 m 213 726 b 149 661 179 726 149 700 b 213 594 149 624 179 594 b 276 661 247 594 276 624 b 213 726 276 700 247 726 "},"⁷":{"ha":386,"x_min":0,"x_max":0,"o":"m 419 1035 l 133 472 l -8 472 l 215 915 l 19 915 l 19 1035 "},"⁸":{"ha":436,"x_min":0,"x_max":0,"o":"m 218 464 b 21 661 108 464 21 550 b 75 796 21 708 43 758 b 51 876 60 817 51 844 b 218 1044 51 969 126 1044 b 385 876 310 1044 385 969 b 364 796 385 847 378 817 b 415 661 396 758 415 713 b 218 464 415 550 328 464 m 218 726 b 154 661 181 726 154 699 b 218 594 154 624 181 594 b 282 661 254 594 282 624 b 218 726 282 699 254 726 m 218 918 b 179 876 197 918 179 900 b 218 836 179 854 197 836 b 257 876 240 836 257 854 b 218 918 257 900 239 918 "},"⁹":{"ha":433,"x_min":0,"x_max":0,"o":"m 86 472 l 186 653 b 17 849 88 668 17 747 b 214 1044 17 957 104 1044 b 413 849 322 1044 413 957 b 386 751 413 822 408 786 l 228 472 m 214 782 b 278 849 249 782 278 810 b 214 915 278 886 249 915 b 153 849 179 915 153 886 b 214 782 153 810 179 782 "},"₀":{"ha":622,"x_min":0,"x_max":0,"o":"m 311 -22 b 21 267 149 -22 21 108 b 310 557 21 429 149 557 b 601 267 472 557 601 429 b 311 -22 601 108 472 -22 m 310 432 b 156 267 225 432 156 357 b 311 104 156 178 225 104 b 467 267 397 104 467 178 b 310 432 467 357 396 432 "},"₁":{"ha":233,"x_min":0,"x_max":0,"o":"m 208 0 l 78 0 l 78 442 l 11 442 l 11 563 l 208 563 "},"₂":{"ha":386,"x_min":0,"x_max":0,"o":"m 1 0 l 156 249 b 26 404 79 264 26 328 b 190 572 26 490 97 572 b 357 404 282 572 357 497 b 329 314 357 371 346 342 l 214 122 l 381 122 l 381 0 m 147 401 b 193 356 147 376 168 356 b 239 401 218 356 239 376 b 193 447 239 426 218 447 b 147 401 168 447 147 426 "},"₃":{"ha":400,"x_min":0,"x_max":0,"o":"m 374 563 l 271 365 b 378 194 338 333 378 269 b 181 -8 378 78 290 -8 b 11 86 115 -8 51 29 l 118 163 b 181 122 133 135 157 122 b 243 189 213 122 243 150 b 181 254 243 229 213 254 l 79 254 l 176 442 l 49 442 l 49 563 "},"₄":{"ha":425,"x_min":0,"x_max":0,"o":"m 354 250 l 424 250 l 424 128 l 354 128 l 354 0 l 225 0 l 225 128 l -3 128 l 183 563 l 324 563 l 186 250 l 225 250 l 225 303 l 354 303 "},"₅":{"ha":411,"x_min":0,"x_max":0,"o":"m 328 563 l 328 442 l 185 442 l 185 383 l 192 383 b 390 197 310 383 390 310 b 183 -8 390 78 300 -8 b 17 83 119 -8 58 28 l 122 163 b 183 122 135 140 161 122 b 256 189 224 122 256 144 b 192 254 256 231 225 254 l 63 254 l 63 563 "},"₆":{"ha":432,"x_min":0,"x_max":0,"o":"m 351 563 l 249 382 b 415 189 347 371 415 289 b 218 -8 415 78 329 -8 b 21 189 108 -8 21 78 b 51 293 21 221 33 261 l 206 563 m 218 254 b 154 189 183 254 154 228 b 218 122 154 151 183 122 b 281 189 251 122 281 151 b 218 254 281 228 251 254 "},"₇":{"ha":386,"x_min":0,"x_max":0,"o":"m 419 563 l 133 0 l -8 0 l 215 442 l 19 442 l 19 563 "},"₈":{"ha":436,"x_min":0,"x_max":0,"o":"m 218 -8 b 21 189 108 -8 21 78 b 75 324 21 236 43 286 b 51 404 60 344 51 372 b 218 572 51 497 126 572 b 385 404 310 572 385 497 b 364 324 385 375 378 344 b 415 189 396 286 415 240 b 218 -8 415 78 328 -8 m 218 254 b 154 189 181 254 154 226 b 218 122 154 151 181 122 b 282 189 254 122 282 151 b 218 254 282 226 254 254 m 218 446 b 179 404 197 446 179 428 b 218 364 179 382 197 364 b 257 404 240 364 257 382 b 218 446 257 428 239 446 "},"₉":{"ha":433,"x_min":0,"x_max":0,"o":"m 86 0 l 186 181 b 17 375 88 194 17 275 b 214 572 17 485 104 572 b 413 375 322 572 413 485 b 386 278 413 350 407 315 l 228 0 m 214 308 b 278 375 249 308 278 336 b 214 442 278 413 249 442 b 153 375 179 442 153 413 b 214 308 153 336 179 308 "},"№":{"ha":1796,"x_min":0,"x_max":0,"o":"m 835 1035 l 1050 1035 l 1050 -18 l 314 594 l 314 0 l 99 0 l 99 1054 l 835 436 m 1161 150 l 1744 150 l 1744 0 l 1161 0 m 1453 251 b 1164 542 1293 251 1164 382 b 1453 833 1164 704 1293 833 b 1744 542 1615 833 1744 704 b 1453 251 1744 382 1615 251 m 1456 671 b 1332 542 1389 671 1332 613 b 1456 411 1332 472 1389 411 b 1578 542 1522 411 1578 472 b 1456 671 1578 613 1522 671 "},"⅓":{"ha":1263,"x_min":0,"x_max":0,"o":"m 242 0 l 707 1035 l 872 1035 l 415 0 m 322 369 l 167 369 l 167 892 l 89 892 l 89 1035 l 322 1035 m 1188 667 l 1065 433 b 1193 229 1144 394 1193 318 b 957 -11 1193 93 1089 -11 b 757 101 881 -11 806 35 l 883 193 b 957 143 906 165 931 143 b 1032 222 997 143 1032 178 b 957 300 1032 269 997 300 l 843 300 l 958 524 l 803 524 l 803 667 "},"⅔":{"ha":1443,"x_min":0,"x_max":0,"o":"m 422 0 l 888 1035 l 1053 1035 l 596 0 m 1368 667 l 1246 433 b 1372 229 1324 394 1372 318 b 1138 -11 1372 93 1269 -11 b 938 101 1061 -11 986 35 l 1064 193 b 1138 143 1085 165 1111 143 b 1213 222 1178 143 1213 178 b 1138 300 1213 269 1178 300 l 1024 300 l 1139 524 l 983 524 l 983 667 m 51 369 l 233 664 b 79 849 149 679 79 751 b 274 1047 79 951 164 1047 b 472 849 385 1047 472 960 b 442 740 472 808 461 771 l 301 513 l 499 513 l 499 369 m 226 847 b 278 796 226 819 250 796 b 329 847 306 796 329 819 b 278 899 329 875 306 899 b 226 847 250 899 226 875 "},"⅛":{"ha":1242,"x_min":0,"x_max":0,"o":"m 242 0 l 707 1035 l 872 1035 l 415 0 m 322 369 l 167 369 l 167 892 l 89 892 l 89 1035 l 322 1035 m 947 -11 b 715 222 819 -11 715 93 b 778 382 715 279 740 338 b 750 479 760 410 750 440 b 947 678 750 590 839 678 b 1147 479 1058 678 1147 590 b 1119 382 1147 443 1138 410 b 1181 222 1158 338 1181 285 b 947 -11 1181 93 1079 -11 m 947 300 b 874 222 907 300 874 267 b 947 143 874 179 907 143 b 1022 222 989 143 1022 179 b 947 300 1022 267 989 300 m 947 526 b 903 479 925 526 903 506 b 947 432 903 451 925 432 b 993 479 974 432 993 451 b 947 526 993 506 972 526 "},"⅜":{"ha":1301,"x_min":0,"x_max":0,"o":"m 353 0 l 817 1035 l 983 1035 l 526 0 m 1161 296 l 1246 296 l 1246 153 l 1161 153 l 1161 0 l 1013 0 l 1013 153 l 739 153 l 964 667 l 1124 667 l 965 296 l 1013 296 l 1013 356 l 1161 356 m 485 1035 l 363 803 b 489 599 440 764 489 688 b 253 357 489 461 385 357 b 53 469 176 357 103 403 l 181 563 b 253 513 201 535 228 513 b 328 592 294 513 328 546 b 253 669 328 639 294 669 l 139 669 l 256 892 l 99 892 l 99 1035 "},"⅝":{"ha":1350,"x_min":0,"x_max":0,"o":"m 346 0 l 811 1035 l 976 1035 l 519 0 m 1056 -11 b 824 222 928 -11 824 93 b 888 382 824 279 850 338 b 860 479 869 410 860 440 b 1056 678 860 590 947 678 b 1256 479 1167 678 1256 590 b 1228 382 1256 443 1246 410 b 1290 222 1267 338 1290 285 b 1056 -11 1290 93 1188 -11 m 1056 300 b 983 222 1015 300 983 267 b 1056 143 983 179 1015 143 b 1131 222 1099 143 1131 179 b 1056 300 1131 267 1099 300 m 1056 526 b 1013 479 1033 526 1013 506 b 1056 432 1013 451 1033 432 b 1101 479 1082 432 1101 451 b 1056 526 1101 506 1081 526 m 410 1035 l 410 892 l 240 892 l 240 824 l 247 824 b 482 601 388 824 482 736 b 238 357 482 460 375 357 b 40 467 164 357 89 400 l 165 561 b 238 513 183 533 211 513 b 324 592 286 513 324 539 b 247 669 324 644 292 669 l 96 669 l 96 1035 "},"⅞":{"ha":1256,"x_min":0,"x_max":0,"o":"m 251 0 l 717 1035 l 882 1035 l 425 0 m 961 -11 b 729 222 833 -11 729 93 b 793 382 729 279 756 338 b 765 479 775 410 765 440 b 961 678 765 590 853 678 b 1161 479 1072 678 1161 590 b 1135 382 1161 443 1151 410 b 1196 222 1174 338 1196 285 b 961 -11 1196 93 1093 -11 m 961 300 b 889 222 921 300 889 267 b 961 143 889 179 921 143 b 1036 222 1004 143 1036 179 b 961 300 1036 267 1004 300 m 961 526 b 918 479 939 526 918 506 b 961 432 918 451 939 432 b 1007 479 988 432 1007 451 b 961 526 1007 506 986 526 m 533 1035 l 193 369 l 26 369 l 290 892 l 58 892 l 58 1035 "},"−":{"ha":851,"x_min":0,"x_max":0,"o":"m 763 413 l 89 413 l 89 568 l 763 568 "},"☺":{"ha":1182,"x_min":0,"x_max":0,"o":"m 590 -18 b 56 517 294 -18 56 224 b 590 1053 56 814 294 1053 b 1126 517 888 1053 1126 814 b 590 -18 1126 224 888 -18 m 590 939 b 183 517 361 939 183 753 b 590 99 183 285 361 99 b 1001 517 821 99 1001 285 b 590 939 1001 753 819 939 m 406 733 b 490 651 456 733 490 697 b 406 569 490 607 456 569 b 324 651 357 569 324 607 b 406 733 324 697 358 733 m 450 460 l 450 454 b 597 321 453 382 518 321 b 747 460 672 321 739 381 l 868 460 b 597 207 860 322 742 207 b 331 454 447 207 333 315 l 331 460 m 790 733 b 875 651 840 733 875 697 b 790 569 875 607 840 569 b 708 651 742 569 708 607 b 790 733 708 697 743 733 "},"☻":{"ha":1182,"x_min":0,"x_max":0,"o":"m 590 -18 b 56 517 294 -18 56 224 b 590 1053 56 814 294 1053 b 1126 517 888 1053 1126 814 b 590 -18 1126 224 888 -18 m 406 733 b 324 651 358 733 324 697 b 406 569 324 607 357 569 b 490 651 456 569 490 607 b 406 733 490 697 456 733 m 331 460 l 331 454 b 597 207 333 315 447 207 b 868 460 742 207 860 322 l 747 460 b 597 321 739 381 672 321 b 450 454 518 321 453 382 l 450 460 m 790 733 b 708 651 743 733 708 697 b 790 569 708 607 742 569 b 875 651 840 569 875 607 b 790 733 875 697 840 733 "},"ﬀ":{"ha":944,"x_min":0,"x_max":0,"o":"m 925 842 b 772 718 833 842 772 786 l 772 701 l 911 701 l 911 519 l 772 519 l 772 0 l 576 0 l 576 519 l 324 519 l 324 0 l 126 0 l 126 519 l 31 519 l 31 701 l 126 701 l 126 711 b 475 1044 126 906 285 1044 l 475 842 b 324 718 385 842 324 786 l 324 701 l 576 701 l 576 711 b 925 1044 576 906 736 1044 "},"ﬃ":{"ha":1294,"x_min":0,"x_max":0,"o":"m 1224 0 l 1026 0 l 1026 519 l 772 519 l 772 0 l 576 0 l 576 519 l 324 519 l 324 0 l 126 0 l 126 519 l 31 519 l 31 701 l 126 701 l 126 711 b 475 1044 126 906 285 1044 l 475 842 b 324 718 385 842 324 786 l 324 701 l 576 701 l 576 711 b 925 1044 576 906 736 1044 l 925 842 b 772 718 833 842 772 786 l 772 701 l 1224 701 m 1133 825 b 1019 938 1072 825 1019 876 b 1133 1046 1019 993 1072 1046 b 1250 938 1200 1046 1250 994 b 1133 825 1250 876 1200 825 "},"ﬅ":{"ha":1068,"x_min":0,"x_max":0,"o":"m 785 489 b 811 446 785 458 792 451 b 1024 224 917 433 1024 363 b 764 -15 1024 88 907 -15 b 525 86 679 -15 590 17 l 688 210 b 769 181 715 188 743 181 b 819 228 793 181 819 197 b 771 274 819 256 793 269 b 588 497 664 285 588 369 l 588 721 b 463 844 588 796 540 844 b 319 721 379 844 319 797 l 319 0 l 122 0 l 122 406 l 42 406 l 42 601 l 122 601 l 122 721 b 460 1051 122 914 282 1051 b 785 721 643 1051 785 914 "},"\"":{"ha":535,"x_min":0,"x_max":0,"o":"m 46 738 l 46 1053 l 261 1053 l 164 738 m 301 738 l 301 1053 l 518 1053 l 421 738 "},"!":{"ha":413,"x_min":0,"x_max":0,"o":"m 297 326 l 115 326 l 115 1035 l 297 1035 m 206 194 b 314 88 269 194 314 147 b 206 -18 314 31 269 -18 b 99 88 142 -18 99 31 b 206 194 99 147 143 194 "},"$":{"ha":789,"x_min":0,"x_max":0,"o":"m 475 1043 b 706 871 572 1021 654 958 l 532 744 b 390 849 503 815 449 849 b 254 735 314 849 254 796 b 400 632 254 671 317 640 b 743 317 603 610 743 486 b 475 -7 743 142 636 28 l 475 -118 l 293 -118 l 293 -11 b 28 163 178 7 86 69 l 218 300 b 379 189 250 219 321 189 b 522 300 478 189 522 239 b 383 426 522 364 458 411 b 35 735 190 461 35 546 b 293 1040 35 892 154 1003 l 293 1149 l 475 1149 "},"#":{"ha":994,"x_min":0,"x_max":0,"o":"m 128 0 l 201 283 l 60 283 l 60 439 l 242 439 l 286 608 l 108 608 l 108 764 l 326 764 l 397 1035 l 553 1035 l 485 764 l 651 764 l 722 1035 l 878 1035 l 810 764 l 944 764 l 944 608 l 768 608 l 726 439 l 896 439 l 896 283 l 688 283 l 615 0 l 453 0 l 526 283 l 363 283 l 290 0 m 401 439 l 567 439 l 611 608 l 443 608 "}}}
